<?xml version="1.0" encoding="UTF-8"?>
<svg version="1.1" xmlns="http://www.w3.org/2000/svg" width="666" height="375">
<path d="M0 0 C1.94805086 -0.00270767 3.89610039 -0.00660052 5.84414673 -0.01159668 C9.88272248 -0.01742361 13.92093932 -0.00914711 17.95947266 0.00976562 C23.08950273 0.03264384 28.2186993 0.01933234 33.34869957 -0.00452423 C37.35545963 -0.01908982 41.36202712 -0.01432891 45.36879349 -0.00401306 C47.25909148 -0.00138018 49.14940804 -0.00449151 51.0396843 -0.01393127 C68.11677955 -0.08059774 83.46453072 1.9510363 97.9765625 11.71875 C111.59886004 25.65064521 113.12328918 43.50205162 113.01757812 61.97265625 C112.74108212 81.5117071 107.38390032 108.43959176 93.1328125 123.1796875 C92.43671875 123.84871094 92.43671875 123.84871094 91.7265625 124.53125 C91.1696875 125.541875 90.6128125 126.5525 90.0390625 127.59375 C83.68734537 139.10012987 74.04882601 147.63820244 63.3515625 154.96875 C58.77424782 158.10950888 54.23651783 161.29435801 49.7265625 164.53125 C49.9531958 165.26126221 50.1798291 165.99127441 50.41333008 166.7434082 C51.45716481 170.1095956 52.49812815 173.47666463 53.5390625 176.84375 C53.89548828 177.99166016 54.25191406 179.13957031 54.61914062 180.32226562 C56.51781572 186.4711859 58.32407234 192.62907372 59.99145508 198.84448242 C61.29265352 203.60027412 62.72868525 208.3145558 64.1640625 213.03125 C64.45087891 213.98644531 64.73769531 214.94164062 65.03320312 215.92578125 C66.46827258 220.6496847 67.98887727 225.30411736 69.7265625 229.92578125 C72.00377337 236.08299007 73.65044683 242.36681286 75.2890625 248.71875 C77.52247936 257.53829628 77.52247936 257.53829628 80.44140625 266.14453125 C81.7265625 269.53125 81.7265625 269.53125 81.7265625 272.53125 C73.06782593 272.64774449 64.40936428 272.73626633 55.75001144 272.79031086 C51.72791362 272.81626615 47.70635685 272.85140138 43.68457031 272.90844727 C39.79414907 272.9632766 35.90424405 272.99277595 32.01346588 273.00563622 C30.53844337 273.01478587 29.06344509 273.03264999 27.58864594 273.05990028 C17.969976 273.2303554 10.35818502 272.02365167 1.7265625 267.53125 C-0.98278226 266.17657762 -3.35119686 266.20804257 -6.375 265.99609375 C-7.58671875 265.90908203 -8.7984375 265.82207031 -10.046875 265.73242188 C-11.31789062 265.64541016 -12.58890625 265.55839844 -13.8984375 265.46875 C-15.1771875 265.37787109 -16.4559375 265.28699219 -17.7734375 265.19335938 C-20.93985744 264.96887438 -24.10650341 264.74834077 -27.2734375 264.53125 C-27.2734375 263.21125 -27.2734375 261.89125 -27.2734375 260.53125 C-26.12681641 260.48750244 -26.12681641 260.48750244 -24.95703125 260.44287109 C-5.20506312 259.62566797 -5.20506312 259.62566797 13.4921875 253.859375 C17.3495372 252.27543913 20.76738682 251.78403422 24.90625 251.63671875 C26.82680526 251.64559885 26.82680526 251.64559885 28.7265625 250.53125 C27.83686768 250.37043945 26.94717285 250.20962891 26.03051758 250.04394531 C21.86651757 249.29071287 17.70273838 248.53627169 13.5390625 247.78125 C12.78891876 247.64530426 12.03877502 247.50935852 11.26589966 247.36929321 C1.2403091 245.55118511 -8.77945629 243.70963354 -18.77612305 241.73730469 C-23.59641449 240.798923 -28.39396881 240.09064425 -33.2734375 239.53125 C-33.2734375 238.21125 -33.2734375 236.89125 -33.2734375 235.53125 C-32.47873047 235.50208496 -31.68402344 235.47291992 -30.86523438 235.44287109 C-11.22699494 234.73126513 -11.22699494 234.73126513 7.390625 228.9296875 C16.97378453 225.26596084 28.5864428 225.93409497 38.7265625 225.53125 C37.22609375 225.52738281 37.22609375 225.52738281 35.6953125 225.5234375 C23.5812046 225.2792925 11.96374532 223.24261724 0.11328125 220.90917969 C-12.95838556 218.3408967 -26.07563453 216.35265145 -39.2734375 214.53125 C-39.2734375 213.21125 -39.2734375 211.89125 -39.2734375 210.53125 C-38.39776123 210.41849731 -38.39776123 210.41849731 -37.50439453 210.3034668 C-34.80121777 209.95042604 -32.09990261 209.58464925 -29.3984375 209.21875 C-28.480625 209.10080078 -27.5628125 208.98285156 -26.6171875 208.86132812 C-21.03879066 208.09528067 -15.83586701 206.91562847 -10.47070312 205.21118164 C-2.51216343 202.74845575 5.93816075 202.25797798 14.20703125 201.77734375 C16.66280577 201.8066796 16.66280577 201.8066796 17.7265625 200.53125 C16.45425781 200.37269531 15.18195313 200.21414062 13.87109375 200.05078125 C4.48526953 198.82450624 -4.66302112 197.32304525 -13.8359375 194.96875 C-23.91423032 192.39341926 -33.91424494 191.2767558 -44.2734375 190.53125 C-44.52996094 191.15386719 -44.78648437 191.77648437 -45.05078125 192.41796875 C-55.77078227 218.29756718 -55.77078227 218.29756718 -61.5234375 230.53125 C-63.97180458 235.75352882 -66.08646218 241.05628538 -68.09765625 246.4609375 C-70.49446398 252.71971118 -73.27120487 258.83121813 -75.9609375 264.96875 C-76.28126953 265.70029297 -76.60160156 266.43183594 -76.93164062 267.18554688 C-77.7119968 268.96755425 -78.49268249 270.74941733 -79.2734375 272.53125 C-86.45923972 272.60786597 -93.644935 272.66008556 -100.83105469 272.69604492 C-103.2711989 272.71104978 -105.71131652 272.73146015 -108.15136719 272.75756836 C-111.67649942 272.79431851 -115.20127238 272.81106002 -118.7265625 272.82421875 C-120.33981415 272.84744453 -120.33981415 272.84744453 -121.98565674 272.87113953 C-131.42083128 272.8731949 -139.82394748 271.03280013 -148.5234375 267.40625 C-158.20891789 263.99550287 -169.11533295 264.67418306 -179.2734375 264.53125 C-178.9434375 262.88125 -178.6134375 261.23125 -178.2734375 259.53125 C-177.04753906 259.54027344 -175.82164062 259.54929687 -174.55859375 259.55859375 C-164.2817533 259.44618448 -155.31991793 258.2381222 -145.5234375 255.09375 C-130.39445388 250.29309061 -115.02216652 249.96502284 -99.2734375 249.53125 C-100.52898437 249.48226562 -101.78453125 249.43328125 -103.078125 249.3828125 C-123.62622214 248.50567189 -123.62622214 248.50567189 -133.59423828 244.29638672 C-143.45060207 240.20064349 -152.64391737 239.62003968 -163.2590332 239.64135742 C-165.2734375 239.53125 -165.2734375 239.53125 -168.2734375 238.53125 C-167.7784375 236.55125 -167.7784375 236.55125 -167.2734375 234.53125 C-166.33628906 234.61246094 -165.39914063 234.69367188 -164.43359375 234.77734375 C-151.45647212 235.51183607 -140.05641803 232.14677649 -127.75268555 228.28735352 C-126.93453369 228.03783936 -126.11638184 227.7883252 -125.2734375 227.53125 C-124.35606812 227.24991211 -124.35606812 227.24991211 -123.42016602 226.96289062 C-120.19366123 226.31414043 -116.94291979 226.17652838 -113.6640625 225.99609375 C-112.93725281 225.95311661 -112.21044312 225.91013947 -111.46160889 225.86585999 C-109.14907628 225.7299338 -106.83628084 225.59927109 -104.5234375 225.46875 C-102.95180266 225.3773006 -101.38018777 225.28550762 -99.80859375 225.19335938 C-95.96376148 224.9686745 -92.11868499 224.74870843 -88.2734375 224.53125 C-89.52898437 224.48226562 -90.78453125 224.43328125 -92.078125 224.3828125 C-112.0552052 223.52987647 -112.0552052 223.52987647 -121.09765625 220.1015625 C-133.22899763 215.58295629 -144.35399695 214.50578222 -157.2734375 214.53125 C-156.9434375 212.88125 -156.6134375 211.23125 -156.2734375 209.53125 C-155.13648438 209.57765625 -153.99953125 209.6240625 -152.828125 209.671875 C-141.27307668 209.99885721 -132.0020497 208.20689741 -121.03515625 204.41015625 C-111.17889376 201.24827651 -101.73387282 200.82296033 -91.43310547 200.6730957 C-89.2695103 200.53099206 -87.35498967 200.12331887 -85.2734375 199.53125 C-86.44519531 199.52738281 -86.44519531 199.52738281 -87.640625 199.5234375 C-97.52317878 199.19328537 -106.66111411 197.17608688 -116.25292969 194.83886719 C-126.52031292 192.37409914 -136.79857152 190.79890894 -147.2734375 189.53125 C-146.9434375 187.88125 -146.6134375 186.23125 -146.2734375 184.53125 C-145.37367188 184.44488281 -144.47390625 184.35851562 -143.546875 184.26953125 C-136.55426733 183.50580957 -129.81613287 182.49202775 -122.99441528 180.75517273 C-109.22836481 177.2894745 -95.5273281 176.15215091 -81.3984375 175.21875 C-79.04155543 175.05037809 -76.68478302 174.88046371 -74.328125 174.70898438 C-68.64436425 174.29870114 -62.95957041 173.90715217 -57.2734375 173.53125 C-58.34601807 173.51666748 -59.41859863 173.50208496 -60.52368164 173.48706055 C-64.5776993 173.42823025 -68.63120945 173.35101977 -72.68481445 173.26879883 C-74.42528935 173.23594153 -76.1658608 173.20779366 -77.90649414 173.18481445 C-90.7998089 173.01012844 -102.87924464 172.05880931 -115.2109375 167.96875 C-122.01589213 165.77360334 -129.19331551 165.27791299 -136.2734375 164.53125 C-135.9434375 162.88125 -135.6134375 161.23125 -135.2734375 159.53125 C-134.15710938 159.37269531 -133.04078125 159.21414062 -131.890625 159.05078125 C-130.30959581 158.81712531 -128.72889109 158.58126807 -127.1484375 158.34375 C-125.90642075 158.15797394 -125.90642075 158.15797394 -124.63931274 157.96844482 C-120.23578058 157.27481846 -115.9337379 156.50407227 -111.64257812 155.28686523 C-94.97557758 150.63019302 -78.40016818 150.77596852 -61.24884033 150.78265381 C-55.04639653 150.77894932 -48.84400483 150.72660738 -42.641716 150.68574524 C-40.39772584 150.67201406 -38.1537389 150.66164992 -35.909729 150.6517334 C-23.68303489 150.58812461 -11.48340381 150.18603382 0.7265625 149.53125 C-0.69139618 149.50365852 -0.69139618 149.50365852 -2.13800049 149.47550964 C-11.13836761 149.29866568 -20.1383536 149.10795584 -29.13815689 148.90438366 C-33.76273193 148.80020401 -38.38730328 148.70056211 -43.01220703 148.61206055 C-47.49294152 148.52613787 -51.97323631 148.42729125 -56.4535141 148.32024574 C-58.14503331 148.28195617 -59.83665698 148.24797743 -61.52835846 148.21883202 C-78.06842355 147.92829553 -93.92276934 145.95047241 -109.83984375 141.3828125 C-114.94618596 140.11639316 -120.02815468 139.72660504 -125.2734375 139.53125 C-125.2734375 137.88125 -125.2734375 136.23125 -125.2734375 134.53125 C-115.63017229 132.57765748 -105.97709784 130.70148452 -96.29975891 128.92419434 C-94.89011286 128.65083571 -93.48473161 128.35491839 -92.0834198 128.04162598 C-85.81937075 126.67013434 -79.77594569 126.12731461 -73.375 125.94140625 C-71.73562973 125.88618553 -71.73562973 125.88618553 -70.06314087 125.82984924 C-52.56479086 125.29413419 -35.05370854 125.1789254 -17.5489502 124.99902344 C-12.65369819 124.94793036 -7.75849266 124.8927125 -2.86328125 124.83789062 C6.66662657 124.73174783 16.19657551 124.63001109 25.7265625 124.53125 C24.74811371 124.50841446 23.76966492 124.48557892 22.76156616 124.46205139 C13.43832126 124.2441419 4.11514046 124.02364532 -5.20798683 123.80075932 C-9.99849267 123.68631303 -14.78901507 123.57270814 -19.57958984 123.46118164 C-56.33664419 122.6043141 -56.33664419 122.6043141 -69.53125 122.01171875 C-70.36572662 121.97442154 -71.20020325 121.93712433 -72.05996704 121.8986969 C-84.65702039 121.27552856 -96.23561231 118.02656007 -108.2734375 114.53125 C-110.60624191 113.86271894 -112.93986697 113.19710368 -115.2734375 112.53125 C-114.6171875 110.58984375 -114.6171875 110.58984375 -113.2734375 108.53125 C-110.9296875 107.87890625 -110.9296875 107.87890625 -107.7734375 107.59375 C-103.03613003 107.0673825 -98.47649746 106.39699654 -93.828125 105.3359375 C-78.73965987 101.95399797 -64.34389562 100.8978224 -48.93115234 100.72045898 C-48.17180389 100.71149094 -47.41245544 100.70252289 -46.63009644 100.69328308 C-45.19502262 100.67932105 -43.75987828 100.67108356 -42.32473755 100.66938782 C-38.67626076 100.69398629 -38.67626076 100.69398629 -35.2734375 99.53125 C-36.08385498 99.47179199 -36.89427246 99.41233398 -37.72924805 99.35107422 C-40.80462676 99.11341242 -43.87714505 98.85332869 -46.94946289 98.57910156 C-48.90569759 98.41099692 -50.86400909 98.26763477 -52.82226562 98.125 C-60.91597606 97.38359141 -66.79828502 95.54377681 -74.01635742 91.89013672 C-79.70588612 89.51640786 -85.48754426 89.38964941 -91.5859375 89.15625 C-92.81505859 89.08792969 -94.04417969 89.01960938 -95.31054688 88.94921875 C-98.29781069 88.78648843 -101.28406799 88.64752289 -104.2734375 88.53125 C-104.2734375 87.21125 -104.2734375 85.89125 -104.2734375 84.53125 C-102.56800781 84.47517578 -102.56800781 84.47517578 -100.828125 84.41796875 C-90.11006175 83.99223221 -79.7700346 83.09543532 -69.53686523 79.59521484 C-60.71273303 76.63680375 -52.16681729 75.51565286 -42.9609375 74.78125 C-41.52657944 74.65624086 -40.0923329 74.52994524 -38.65820312 74.40234375 C-35.19776767 74.09720413 -31.73617045 73.80926796 -28.2734375 73.53125 C-29.51996094 73.49386719 -30.76648438 73.45648438 -32.05078125 73.41796875 C-46.53529415 72.89412174 -60.10662153 70.9912789 -74.13671875 67.29296875 C-80.45598635 65.7584019 -86.87405575 64.67631704 -93.2734375 63.53125 C-93.2734375 62.21125 -93.2734375 60.89125 -93.2734375 59.53125 C-92.53818848 59.39025879 -91.80293945 59.24926758 -91.04541016 59.10400391 C-87.66300828 58.45515667 -84.28072233 57.80570707 -80.8984375 57.15625 C-79.74214844 56.93453125 -78.58585937 56.7128125 -77.39453125 56.484375 C-76.25371094 56.26523438 -75.11289063 56.04609375 -73.9375 55.8203125 C-72.90061035 55.62131348 -71.8637207 55.42231445 -70.79541016 55.21728516 C-68.89205408 54.84653578 -66.98983751 54.46770581 -65.09762573 54.04373169 C-58.09796687 52.51971026 -51.15803534 51.89781869 -44.015625 51.4453125 C-42.72453827 51.36173492 -41.43345154 51.27815735 -40.10324097 51.19204712 C-24.03044784 50.20745302 -7.93492462 50.08233338 8.16296387 49.93035889 C12.3079326 49.88938019 16.45278417 49.83873244 20.59765625 49.7890625 C28.64054298 49.69402378 36.68349112 49.60910838 44.7265625 49.53125 C42.00430475 48.17012113 39.82197974 48.37636114 36.77416992 48.34179688 C34.89401436 48.31672058 34.89401436 48.31672058 32.97587585 48.2911377 C31.96516809 48.28111473 31.96516809 48.28111473 30.93404198 48.27088928 C28.8067249 48.24974851 26.6795528 48.22271458 24.55232239 48.19421387 C20.00629424 48.13446625 15.46019117 48.08267107 10.9140625 48.03125 C-43.73088656 47.40304567 -43.73088656 47.40304567 -54.9609375 44.15625 C-56.68615222 43.70188261 -58.412757 43.25276457 -60.140625 42.80859375 C-60.98463867 42.59058105 -61.82865234 42.37256836 -62.69824219 42.14794922 C-69.47066002 40.52611309 -76.39114842 39.56485385 -83.2734375 38.53125 C-82.9434375 36.88125 -82.6134375 35.23125 -82.2734375 33.53125 C-81.72631104 33.46131836 -81.17918457 33.39138672 -80.61547852 33.31933594 C-78.0210399 32.98233253 -75.42858546 32.63175432 -72.8359375 32.28125 C-71.97677734 32.17167969 -71.11761719 32.06210938 -70.23242188 31.94921875 C-65.31468525 31.2745834 -60.59169608 30.36954317 -55.80028439 29.05854416 C-44.65032866 26.10538364 -33.74766711 25.83706759 -22.26953125 25.703125 C-20.20871552 25.66560416 -18.14792894 25.62645051 -16.08717346 25.58575439 C-10.7232501 25.48412617 -5.35922765 25.40434071 0.00512695 25.32946777 C5.50300569 25.24874284 11.00049058 25.14685639 16.49804688 25.046875 C27.2406067 24.85456223 37.98339159 24.68537715 48.7265625 24.53125 C40.10684103 23.9603031 31.50242957 23.40541209 22.86328125 23.25 C22.02094437 23.23159058 21.17860748 23.21318115 20.31074524 23.19421387 C17.67857128 23.13682217 15.04634315 23.08350008 12.4140625 23.03125 C5.51726754 22.8935072 -1.37821389 22.73351471 -8.2734375 22.53125 C-9.13483337 22.50772461 -9.99622925 22.48419922 -10.88372803 22.45996094 C-13.42460095 22.38451488 -15.96395552 22.28903449 -18.50390625 22.1875 C-19.25481033 22.16691528 -20.00571442 22.14633057 -20.77937317 22.12512207 C-27.5147821 21.81786238 -33.41804425 20.00350645 -39.40234375 16.91796875 C-45.21543631 14.34611568 -51.95764205 14.67414416 -58.2109375 14.34375 C-59.57624218 14.26223685 -60.94147818 14.17956474 -62.30664062 14.09570312 C-65.62841026 13.89616219 -68.95041049 13.70838906 -72.2734375 13.53125 C-71.9434375 11.88125 -71.6134375 10.23125 -71.2734375 8.53125 C-70.54044434 8.43102539 -69.80745117 8.33080078 -69.05224609 8.22753906 C-65.5836173 7.75033884 -62.11605033 7.26577567 -58.6484375 6.78125 C-57.49730469 6.62398437 -56.34617187 6.46671875 -55.16015625 6.3046875 C-49.53965412 5.51477909 -43.96040635 4.69496293 -38.40087891 3.55133057 C-25.47932888 0.92529147 -13.16421661 -0.06623633 0 0 Z M4.7265625 73.53125 C0.52809942 81.88509288 0.52809942 81.88509288 -3.0234375 90.40625 C-3.43078125 91.47617188 -3.838125 92.54609375 -4.2578125 93.6484375 C-5.06726158 95.94602759 -5.70679729 98.16898149 -6.2734375 100.53125 C21.07381285 100.69980407 48.38840602 100.21854251 75.7265625 99.53125 C75.7265625 99.20125 75.7265625 98.87125 75.7265625 98.53125 C73.86064453 98.45777344 73.86064453 98.45777344 71.95703125 98.3828125 C58.76456803 97.81482394 47.29981083 96.37231624 34.890625 91.65234375 C30.54288818 90.11184934 26.46100687 89.42248297 21.86328125 89.21484375 C20.97705078 89.17294922 20.09082031 89.13105469 19.17773438 89.08789062 C18.26572266 89.04857422 17.35371094 89.00925781 16.4140625 88.96875 C15.48271484 88.92556641 14.55136719 88.88238281 13.59179688 88.83789062 C11.30351796 88.73227775 9.01513878 88.63017248 6.7265625 88.53125 C7.0565625 87.21125 7.3865625 85.89125 7.7265625 84.53125 C8.64429443 84.58623657 8.64429443 84.58623657 9.58056641 84.64233398 C23.88155962 85.37855156 35.62127631 84.12800608 49.07421875 79.16015625 C56.47089786 76.45767995 63.87145231 76.31538298 71.6640625 76.03125 C78.07736792 75.7964578 84.36953809 75.431891 90.7265625 74.53125 C90.7265625 74.20125 90.7265625 73.87125 90.7265625 73.53125 C62.3465625 73.53125 33.9665625 73.53125 4.7265625 73.53125 Z M-38.2734375 173.53125 C-39.7584375 178.97625 -39.7584375 178.97625 -41.2734375 184.53125 C-35.36657107 184.85665821 -30.45957145 183.96929193 -24.74560547 182.4987793 C-8.14345146 178.24026633 8.09627357 177.34785876 25.13769531 176.70458984 C29.37205824 176.500073 33.52489249 176.08360437 37.7265625 175.53125 C37.7265625 175.20125 37.7265625 174.87125 37.7265625 174.53125 C12.38601567 173.72501835 -12.9204503 173.39180643 -38.2734375 173.53125 Z " fill="#375876" transform="translate(255.2734375,45.46875)"/>
<path d="M0 0 C4.29068936 0.02533045 8.58139496 0.02738019 12.87214756 0.03210163 C20.9641359 0.04443986 29.05590315 0.07713483 37.14779496 0.11749959 C46.37417031 0.16250567 55.60055728 0.18427618 64.8270154 0.20428133 C83.77583869 0.24587776 102.72445741 0.31604781 121.67311192 0.40557575 C122.00311192 1.06557575 122.33311192 1.72557575 122.67311192 2.40557575 C121.85279942 4.550107 121.85279942 4.550107 120.54811192 7.21807575 C118.6514325 11.23487902 116.9209233 15.24652049 115.36061192 19.40557575 C112.32156156 27.44899294 108.94247695 35.34306474 105.58375645 43.25664997 C101.19834906 53.60527083 96.94690767 64.0105221 92.67311192 74.40557575 C61.35270744 74.61196528 61.35270744 74.61196528 47.67311192 73.40557575 C47.5841666 74.03463825 47.49522129 74.66370075 47.40358067 75.31182575 C46.36937497 79.69199107 44.6766294 83.74172276 42.98561192 87.90557575 C42.62620518 88.7983321 42.26679844 89.69108845 41.89650059 90.61089802 C39.44938818 96.63702791 36.81763126 102.53222849 34.03248692 108.409482 C32.63285695 111.49429862 31.42025485 114.60742503 30.23561192 117.78057575 C28.42587307 122.6104254 26.39294518 127.25616588 24.17311192 131.90557575 C21.51220849 137.48340236 19.20919067 143.10798797 17.04811192 148.9016695 C15.40473494 153.08947958 13.58358635 157.17991055 11.73561192 161.28057575 C8.82819821 167.74536659 6.09460684 174.24772798 3.49342442 180.84307575 C0.9888222 187.15928629 -1.60790024 193.43818276 -4.20188808 199.71807575 C-4.46444393 200.35375477 -4.72699978 200.98943378 -4.99751186 201.6443758 C-8.41457786 209.90603941 -11.91758833 218.12052296 -15.59324551 226.27056599 C-19.02777245 233.90415189 -22.17463828 241.65221599 -25.32688808 249.40557575 C-26.26092325 251.6986568 -27.19803103 253.99049076 -28.13938808 256.28057575 C-28.5170834 257.20612263 -28.89477871 258.1316695 -29.28391933 259.08526325 C-30.32688808 261.40557575 -30.32688808 261.40557575 -32.32688808 264.40557575 C-33.00944798 266.7343095 -33.67739584 269.06740366 -34.32688808 271.40557575 C-36.01563177 273.09431944 -38.14666003 272.58510597 -40.46311855 272.63018513 C-41.56292049 272.65270344 -42.66272243 272.67522175 -43.79585171 272.69842243 C-48.91010827 272.76978117 -54.02429473 272.82733385 -59.1388998 272.86553669 C-61.81650816 272.88753299 -64.49074935 272.93254934 -67.16819668 272.98858356 C-82.08163815 273.29691976 -94.59161497 273.01705048 -108.35325527 267.0086031 C-113.80323254 264.65627921 -119.1340736 264.39937105 -125.01438808 264.46807575 C-126.02565762 264.45196247 -127.03692715 264.43584919 -128.07884121 264.41924763 C-130.49633964 264.38487561 -132.90942324 264.37981294 -135.32688808 264.40557575 C-134.45188808 260.53057575 -134.45188808 260.53057575 -133.32688808 259.40557575 C-131.6145416 259.29606851 -129.89808598 259.24968992 -128.18235683 259.2297945 C-115.15715128 258.97144006 -104.86350736 258.38933141 -92.98704433 252.846982 C-86.57016902 250.46372182 -79.59553814 250.56541019 -72.82688808 250.21807575 C-71.41796696 250.13654247 -70.00911129 250.0538696 -68.60032558 249.97002888 C-65.17632117 249.77068615 -61.75209237 249.58288419 -58.32688808 249.40557575 C-59.22443813 249.34611774 -59.22443813 249.34611774 -60.14012051 249.28545856 C-72.52666496 248.42424103 -83.66255782 247.24439852 -95.27342129 242.63238239 C-101.49132423 240.32089173 -107.29146471 239.87090654 -113.88938808 239.71807575 C-114.89807949 239.6839156 -115.9067709 239.64975544 -116.94602871 239.61456013 C-119.40620376 239.53294295 -121.86606117 239.46351899 -124.32688808 239.40557575 C-124.65688808 238.74557575 -124.98688808 238.08557575 -125.32688808 237.40557575 C-124.83188808 236.41557575 -124.83188808 236.41557575 -124.32688808 235.40557575 C-123.33173183 235.39139606 -122.33657558 235.37721638 -121.31126308 235.362607 C-108.63316476 234.99537085 -96.39176264 232.65914313 -84.43260098 228.36675739 C-81.29638883 227.39613659 -78.54032208 227.00860707 -75.27220058 226.77276325 C-74.16360683 226.68897419 -73.05501308 226.60518513 -71.91282558 226.518857 C-70.77071621 226.44022419 -69.62860683 226.36159138 -68.45188808 226.28057575 C-67.28657558 226.19420856 -66.12126308 226.10784138 -64.92063808 226.018857 C-62.05648164 225.80756677 -59.19200307 225.60336726 -56.32688808 225.40557575 C-57.6513998 225.25862263 -57.6513998 225.25862263 -59.00266933 225.10870075 C-60.20278652 224.9591695 -61.40290371 224.80963825 -62.63938808 224.65557575 C-63.8111459 224.516357 -64.98290371 224.37713825 -66.19016933 224.23370075 C-69.49661228 223.69653221 -72.42359039 222.67010223 -75.54563808 221.4641695 C-81.44878785 219.23164283 -87.29029842 218.15346526 -93.51438808 217.21807575 C-94.54241543 217.05372028 -95.57044277 216.88936481 -96.62962246 216.72002888 C-102.18417858 215.84224554 -107.74268558 215.06765485 -113.32688808 214.40557575 C-113.32688808 213.08557575 -113.32688808 211.76557575 -113.32688808 210.40557575 C-111.4957748 210.36690388 -111.4957748 210.36690388 -109.62766933 210.32745075 C-99.52528913 210.01667161 -90.89827153 208.84510636 -81.32688808 205.40557575 C-74.14036907 202.88565748 -67.43961905 201.83750213 -59.85032558 201.456357 C-58.7990649 201.39401371 -57.74780422 201.33167042 -56.66468716 201.26743793 C-53.34428547 201.0730863 -50.02324298 200.89530792 -46.70188808 200.71807575 C-44.4348978 200.58831591 -42.16796958 200.45746691 -39.90110683 200.32549763 C-34.37702188 200.00626788 -28.85231598 199.70059769 -23.32688808 199.40557575 C-24.21360195 199.38575642 -25.10031582 199.36593708 -26.0138998 199.34551716 C-29.35024472 199.26673328 -32.68619874 199.18002332 -36.02220058 199.08819294 C-37.45734321 199.05025682 -38.89256955 199.01534713 -40.32786465 198.98370075 C-61.0462422 198.52136597 -61.0462422 198.52136597 -69.40110683 193.3547945 C-79.11812559 188.56527004 -92.70451018 189.80443974 -103.32688808 189.40557575 C-102.99688808 187.75557575 -102.66688808 186.10557575 -102.32688808 184.40557575 C-101.16455654 184.40726765 -101.16455654 184.40726765 -99.97874355 184.40899372 C-80.90292736 184.79457473 -80.90292736 184.79457473 -63.18626308 178.78057575 C-56.75401661 175.68747362 -48.85723467 176.15474083 -41.82688808 175.84307575 C-40.90907558 175.79989216 -39.99126308 175.75670856 -39.04563808 175.71221638 C-36.80616747 175.60724119 -34.56660716 175.50508327 -32.32688808 175.40557575 C-32.92412685 175.31058796 -33.52136562 175.21560017 -34.13670254 175.11773396 C-45.41199172 173.30122547 -56.44315865 171.25594861 -67.43113613 168.128232 C-73.83754943 166.37398898 -80.19031795 165.54415546 -86.80662441 165.03789997 C-88.6526367 164.88760665 -90.49159634 164.65468148 -92.32688808 164.40557575 C-92.65688808 163.74557575 -92.98688808 163.08557575 -93.32688808 162.40557575 C-92.99688808 161.41557575 -92.66688808 160.42557575 -92.32688808 159.40557575 C-91.54265469 159.37641071 -90.75842129 159.34724567 -89.95042324 159.31719685 C-71.69969488 158.89596865 -71.69969488 158.89596865 -54.20188808 154.34307575 C-43.62610231 150.03172388 -32.47088195 150.49817177 -21.20091152 150.51568317 C-18.17090819 150.39959997 -15.3046279 149.96341893 -12.32688808 149.40557575 C-12.9304916 149.36070026 -13.53409512 149.31582478 -14.15598965 149.26958942 C-39.05175216 147.36420463 -39.05175216 147.36420463 -48.90110683 143.35870075 C-59.33123264 139.2521177 -70.258371 139.56876182 -81.32688808 139.40557575 C-81.65688808 138.41557575 -81.98688808 137.42557575 -82.32688808 136.40557575 C-81.99688808 135.74557575 -81.66688808 135.08557575 -81.32688808 134.40557575 C-80.04555996 134.3797945 -78.76423183 134.35401325 -77.44407558 134.32745075 C-65.85400193 133.98808656 -56.14819795 132.51129138 -45.16819668 128.64556599 C-38.22150845 126.35266819 -31.47859286 125.67921576 -24.20188808 125.21807575 C-23.05462246 125.13622028 -21.90735683 125.05436481 -20.72532558 124.97002888 C-17.92638279 124.77177043 -15.12716354 124.58383329 -12.32688808 124.40557575 C-13.45481777 124.2354195 -14.58274746 124.06526325 -15.74485683 123.88995075 C-34.40309934 121.03381058 -52.87542894 117.37000354 -71.32688808 113.40557575 C-70.83188808 111.42557575 -70.83188808 111.42557575 -70.32688808 109.40557575 C-68.72200527 109.41911091 -68.72200527 109.41911091 -67.08470058 109.4329195 C-57.27899856 109.31142905 -48.75855738 107.85731786 -39.38938808 104.96807575 C-23.03704724 100.0103183 -6.29412298 99.83097409 10.67311192 99.40557575 C9.66450108 99.36968342 9.66450108 99.36968342 8.63551426 99.33306599 C-4.68125803 98.78262734 -16.59575219 97.49351853 -29.15598965 92.95000935 C-39.30224181 89.42695337 -49.65961707 88.84450336 -60.32688808 88.40557575 C-60.32688808 87.08557575 -60.32688808 85.76557575 -60.32688808 84.40557575 C-59.62829678 84.40670368 -58.92970547 84.40783161 -58.20994473 84.40899372 C-43.4159219 84.35310762 -30.90492304 83.43264801 -17.32688808 77.40557575 C-13.87701826 76.25561915 -10.88553261 76.0928397 -7.25266933 75.8704195 C-6.22692051 75.80595379 -6.22692051 75.80595379 -5.18044949 75.74018574 C-3.0003103 75.60403894 -0.81987712 75.4734872 1.36061192 75.34307575 C2.84045245 75.25164766 4.32027052 75.15985509 5.80006504 75.06768513 C9.42416299 74.84275506 13.04854547 74.62284101 16.67311192 74.40557575 C15.82803074 74.38940205 14.98294956 74.37322834 14.11225986 74.35656452 C6.05358031 74.199113 -2.00450037 74.02410074 -10.06239605 73.83052158 C-14.20267662 73.73164584 -18.34287997 73.63900244 -22.48362637 73.56182575 C-56.27801157 72.92339338 -56.27801157 72.92339338 -72.3543539 68.87688923 C-77.52551612 67.6413018 -82.82504095 66.96151959 -88.07688808 66.15557575 C-89.17903652 65.98284138 -90.28118496 65.810107 -91.41673183 65.63213825 C-94.05289018 65.21952216 -96.68955745 64.81061764 -99.32688808 64.40557575 C-99.32688808 62.75557575 -99.32688808 61.10557575 -99.32688808 59.40557575 C-94.96566839 58.4220016 -90.59969834 57.46382158 -86.22874355 56.52471638 C-84.75602447 56.20509559 -83.28455506 55.87963682 -81.81468105 55.54717731 C-54.13125258 49.30164259 -25.44305369 49.90021623 2.78828526 49.34112263 C7.86459093 49.23900564 12.94071491 49.12853232 18.01686192 49.018857 C27.9021219 48.80646034 37.78754248 48.60300744 47.67311192 48.40557575 C46.57080738 48.39970951 45.46850285 48.39384327 44.33279514 48.38779926 C33.87477386 48.33024469 23.41695401 48.25731656 12.95913887 48.16986084 C7.58443395 48.12539363 2.20980073 48.08608735 -3.16502285 48.05914021 C-8.36530423 48.03286884 -13.56530609 47.99230376 -18.76541233 47.94238949 C-20.73578852 47.92588017 -22.70621288 47.91426786 -24.67664814 47.90796185 C-39.03862221 47.85741064 -52.42260077 46.59520064 -66.32688808 42.84307575 C-73.86303791 40.84325946 -81.58830254 40.18493567 -89.32688808 39.40557575 C-88.99688808 37.42557575 -88.66688808 35.44557575 -88.32688808 33.40557575 C-87.08036465 33.2354195 -85.83384121 33.06526325 -84.54954433 32.88995075 C-82.82943473 32.6455636 -81.10938595 32.40074811 -79.38938808 32.15557575 C-78.57792324 32.04600544 -77.7664584 31.93643513 -76.93040371 31.8235445 C-72.20094065 31.14020003 -67.66743709 30.23396269 -63.06297112 28.94404697 C-50.71644493 25.62922762 -38.31367493 25.60320875 -25.60423183 25.35870075 C-23.162263 25.29871229 -20.72033258 25.23714098 -18.27844143 25.1740694 C-11.90851049 25.01372766 -5.53829345 24.8746316 0.83223057 24.74023151 C7.35567823 24.59875227 13.87861586 24.43680298 20.40162754 24.2766695 C33.158372 23.96647546 45.91550918 23.67806743 58.67311192 23.40557575 C57.96013541 23.39379543 57.24715891 23.38201511 56.51257706 23.36987782 C38.23236593 23.06748808 19.95258859 22.74974934 1.67311192 22.40557575 C0.62782322 22.38623981 -0.41746548 22.36690388 -1.49442959 22.346982 C-6.71172586 22.24981717 -11.92864752 22.14420307 -17.14536953 22.01980305 C-18.62650131 21.9856612 -20.10770801 21.95461149 -21.58897305 21.9268465 C-30.6652571 21.75350654 -38.2589629 21.47524493 -46.44798183 17.32745075 C-52.52730951 14.51176215 -58.79580468 14.73269369 -65.38938808 14.65557575 C-66.63655605 14.62592731 -67.88372402 14.59627888 -69.16868496 14.565732 C-72.22148235 14.49555275 -75.27353894 14.44259765 -78.32688808 14.40557575 C-79.45188808 10.65557575 -79.45188808 10.65557575 -78.32688808 8.40557575 C-76.23582363 7.87481403 -76.23582363 7.87481403 -73.46360683 7.47588825 C-71.91189785 7.24192341 -71.91189785 7.24192341 -70.32884121 7.003232 C-68.68818691 6.76926716 -68.68818691 6.76926716 -67.01438808 6.53057575 C-64.91344792 6.22532229 -62.81320305 5.91525263 -60.71360683 5.60088825 C-59.5981599 5.43603931 -58.48271297 5.27119038 -57.33346462 5.10134602 C-54.65081253 4.66938994 -52.13896425 4.10268648 -49.49120998 3.42757893 C-33.19275187 -0.69385832 -16.67892793 -0.11539553 0 0 Z " fill="#385977" transform="translate(471.3268880844116,45.5944242477417)"/>
<path d="M0 0 C15.51 0 31.02 0 47 0 C47 0.66 47 1.32 47 2 C47.99 1.67 48.98 1.34 50 1 C62.33333333 1 74.66666667 1 87 1 C87 1.33 87 1.66 87 2 C75.78 2 64.56 2 53 2 C52.34 3.98 51.68 5.96 51 8 C50.22291511 10.1303756 49.43078839 12.2553146 48.625 14.375 C48.22539062 15.43460938 47.82578125 16.49421875 47.4140625 17.5859375 C45.8026676 21.47643238 43.88321767 25.23356466 42 29 C49.59 29 57.18 29 65 29 C65 29.33 65 29.66 65 30 C47.18 30 29.36 30 11 30 C11.66 29.34 12.32 28.68 13 28 C12.18958252 27.94054199 11.37916504 27.88108398 10.54418945 27.81982422 C7.46881074 27.58216242 4.39629245 27.32207869 1.32397461 27.04785156 C-0.63226009 26.87974692 -2.59057159 26.73638477 -4.54882812 26.59375 C-12.64253856 25.85234141 -18.52484752 24.01252681 -25.74291992 20.35888672 C-31.43244862 17.98515786 -37.21410676 17.85839941 -43.3125 17.625 C-44.54162109 17.55667969 -45.77074219 17.48835938 -47.03710938 17.41796875 C-50.02437319 17.25523843 -53.01063049 17.11627289 -56 17 C-56 15.68 -56 14.36 -56 13 C-54.29457031 12.94392578 -54.29457031 12.94392578 -52.5546875 12.88671875 C-41.83662425 12.46098221 -31.4965971 11.56418532 -21.26342773 8.06396484 C-12.43929553 5.10555375 -3.89337979 3.98440286 5.3125 3.25 C6.74685806 3.12499086 8.1811046 2.99869524 9.61523438 2.87109375 C13.07576175 2.56358007 16.53696707 2.28234734 20 2 C13.4 1.67 6.8 1.34 0 1 C0 0.67 0 0.34 0 0 Z " fill="#466581" transform="translate(207,117)"/>
<path d="M0 0 C1.94476266 2.91714398 2.72983595 5.03490219 3.69140625 8.3671875 C3.99626953 9.41777344 4.30113281 10.46835937 4.61523438 11.55078125 C4.92783203 12.64777344 5.24042969 13.74476563 5.5625 14.875 C6.03719727 16.50888672 6.03719727 16.50888672 6.52148438 18.17578125 C7.84574225 22.7699158 9.08390321 27.3063604 10 32 C1.34126343 32.11649449 -7.31719822 32.20501633 -15.97655106 32.25906086 C-19.99864888 32.28501615 -24.02020565 32.32015138 -28.04199219 32.37719727 C-31.93241343 32.4320266 -35.82231845 32.46152595 -39.71309662 32.47438622 C-41.18811913 32.48353587 -42.66311741 32.50139999 -44.13791656 32.52865028 C-53.7565865 32.6991054 -61.36837748 31.49240167 -70 27 C-72.70934476 25.64532762 -75.07775936 25.67679257 -78.1015625 25.46484375 C-79.31328125 25.37783203 -80.525 25.29082031 -81.7734375 25.20117188 C-83.04445312 25.11416016 -84.31546875 25.02714844 -85.625 24.9375 C-87.543125 24.80118164 -87.543125 24.80118164 -89.5 24.66210938 C-92.66641994 24.43762438 -95.83306591 24.21709077 -99 24 C-99 22.68 -99 21.36 -99 20 C-98.23558594 19.97083496 -97.47117188 19.94166992 -96.68359375 19.91162109 C-77.02508552 19.23070042 -77.02508552 19.23070042 -58.4921875 13.33984375 C-48.1527421 9.37292007 -35.46781225 10.68363211 -24.51049805 10.44775391 C-12.22380558 10.19839965 -12.22380558 10.19839965 0 9 C-0.99 7.35 -1.98 5.7 -3 4 C-2.01 4 -1.02 4 0 4 C0 2.68 0 1.36 0 0 Z " fill="#365776" transform="translate(327,286)"/>
<path d="M0 0 C1.09658936 3.28976808 0.79953138 4.71303767 0 8 C0.66 8 1.32 8 2 8 C3.625 10 3.625 10 5 12 C3.4375 12.6875 3.4375 12.6875 1 13 C-0.34578125 12.30390625 -0.34578125 12.30390625 -1.71875 11.59375 C-7.71987914 8.90283273 -14.46841564 9.15429541 -20.9375 8.8125 C-22.30280468 8.73098685 -23.66804068 8.64831474 -25.03320312 8.56445312 C-28.35497276 8.36491219 -31.67697299 8.17713906 -35 8 C-34.67 6.35 -34.34 4.7 -34 3 C-30.39746678 2.48775274 -26.79277663 1.99253625 -23.1875 1.5 C-21.68026367 1.28537109 -21.68026367 1.28537109 -20.14257812 1.06640625 C-13.38439357 0.15372538 -6.81694781 -0.18176284 0 0 Z " fill="#46627C" transform="translate(218,51)"/>
<path d="M0 0 C0 0.66 0 1.32 0 2 C-1.98 2.99 -1.98 2.99 -4 4 C-3.49396008 6.16874252 -3.00016187 7.99967627 -2 10 C0.01669827 11.13350534 0.01669827 11.13350534 2 12 C2 12.66 2 13.32 2 14 C2.66 14.33 3.32 14.66 4 15 C1.77890413 14.50642314 -0.16443259 13.92578627 -2.24487305 12.98681641 C-5.41563739 11.85112926 -8.03119071 11.68157752 -11.39453125 11.5859375 C-12.59658203 11.54726563 -13.79863281 11.50859375 -15.03710938 11.46875 C-16.90592773 11.42234375 -16.90592773 11.42234375 -18.8125 11.375 C-20.07771484 11.33632813 -21.34292969 11.29765625 -22.64648438 11.2578125 C-25.76417851 11.16369343 -28.88186914 11.07805639 -32 11 C-33.125 7.25 -33.125 7.25 -32 5 C-29.63916016 4.42163086 -29.63916016 4.42163086 -26.5390625 3.96484375 C-25.42789062 3.79533203 -24.31671875 3.62582031 -23.171875 3.45117188 C-22.00140625 3.28166016 -20.8309375 3.11214844 -19.625 2.9375 C-17.32520337 2.59457024 -15.02570824 2.24961055 -12.7265625 1.90234375 C-11.18863037 1.67792603 -11.18863037 1.67792603 -9.61962891 1.44897461 C-1.16530723 0 -1.16530723 0 0 0 Z " fill="#647F94" transform="translate(425,49)"/>
<path d="M0 0 C9.19430214 -0.33115071 9.19430214 -0.33115071 13.375 2.4296875 C15.03071413 5.18921104 15.53237372 7.11916637 16.0625 10.2421875 C4.24381321 9.73385689 -7.32627162 7.36579676 -18.9375 5.2421875 C-18.9375 3.9221875 -18.9375 2.6021875 -18.9375 1.2421875 C-12.62869162 0.747379 -6.3157366 0.38846793 0 0 Z " fill="#526F88" transform="translate(240.9375,279.7578125)"/>
<path d="M0 0 C-0.33 0.66 -0.66 1.32 -1 2 C-1.99 2 -2.98 2 -4 2 C-2.11192137 4.69725519 -0.80175356 6.13216429 2 8 C-0.68890288 9.83977566 -2.80145351 11.15805009 -6.1328125 10.71875 C-6.91398437 10.5228125 -7.69515625 10.326875 -8.5 10.125 C-14.21357847 8.85938018 -19.78909895 8.56199816 -25.625 8.375 C-26.62917969 8.33632813 -27.63335937 8.29765625 -28.66796875 8.2578125 C-31.11181005 8.16471378 -33.55566596 8.07889087 -36 8 C-35.67 6.35 -35.34 4.7 -35 3 C-33.29457031 3.06960937 -33.29457031 3.06960937 -31.5546875 3.140625 C-22.23902428 3.39885895 -14.59515462 2.8593695 -5.72265625 -0.22265625 C-3 -1 -3 -1 0 0 Z " fill="#47647E" transform="translate(134,252)"/>
<path d="M0 0 C9.24 0 18.48 0 28 0 C26.68 0.33 25.36 0.66 24 1 C24 1.66 24 2.32 24 3 C25.65 2.67 27.3 2.34 29 2 C29.61875 2.78375 30.2375 3.5675 30.875 4.375 C32.89858661 6.96837647 32.89858661 6.96837647 35 9 C27.9924813 10.70065512 21.70505518 9.06821233 14.75 7.625 C13.56664062 7.39039063 12.38328125 7.15578125 11.1640625 6.9140625 C2.58004464 5.19334821 2.58004464 5.19334821 -1 4 C-0.67 2.68 -0.34 1.36 0 0 Z " fill="#567189" transform="translate(401,155)"/>
<path d="M0 0 C-0.66 2.97 -1.32 5.94 -2 9 C-1.34 9.33 -0.68 9.66 0 10 C-4.3674825 11.09187062 -7.33595427 10.78410266 -11.6328125 9.546875 C-16.33758536 8.45996378 -21.19141847 8.3045435 -26 8 C-26 6.35 -26 4.7 -26 3 C-17.17842441 0.99996667 -9.10801209 -0.37430187 0 0 Z " fill="#4A6680" transform="translate(156,177)"/>
<path d="M0 0 C0 1.32 0 2.64 0 4 C-1.32 4 -2.64 4 -4 4 C-3.95875 4.78375 -3.9175 5.5675 -3.875 6.375 C-4 9 -4 9 -6 11 C-8.92825268 10.84259899 -11.72621272 10.57477798 -14.625 10.1875 C-15.79869141 10.04344727 -15.79869141 10.04344727 -16.99609375 9.89648438 C-19.33215129 9.60786698 -21.66598862 9.30467167 -24 9 C-25.52852065 8.8075966 -27.05715846 8.61612064 -28.5859375 8.42578125 C-29.71257812 8.28527344 -30.83921875 8.14476562 -32 8 C-32 6.68 -32 5.36 -32 4 C-30.74445313 3.96261719 -29.48890625 3.92523438 -28.1953125 3.88671875 C-16.29500761 3.53138352 -16.29500761 3.53138352 -4.8125 0.62109375 C-3 0 -3 0 0 0 Z " fill="#42607B" transform="translate(390,252)"/>
<path d="M0 0 C-0.5259375 1.11375 -0.5259375 1.11375 -1.0625 2.25 C-2.06115165 5.17937817 -1.91488517 6.15369057 -1 9 C-1.33 9.33 -1.66 9.66 -2 10 C-10.66740165 9.77731972 -19.42160866 8.19240797 -28 7 C-28 5.68 -28 4.36 -28 3 C-27.37955811 2.91435791 -26.75911621 2.82871582 -26.11987305 2.74047852 C-23.30866566 2.3507567 -20.49808577 1.9566787 -17.6875 1.5625 C-16.71103516 1.42779297 -15.73457031 1.29308594 -14.72851562 1.15429688 C-13.79072266 1.02216797 -12.85292969 0.89003906 -11.88671875 0.75390625 C-11.02264404 0.63345947 -10.15856934 0.5130127 -9.26831055 0.38891602 C-2.49105657 -0.77308652 -2.49105657 -0.77308652 0 0 Z " fill="#5C778F" transform="translate(244,253)"/>
<path d="M0 0 C-1 3 -1 3 -3 4 C-4.32860925 4.35169068 -5.66158328 4.68770276 -7 5 C-6.505 5.61875 -6.01 6.2375 -5.5 6.875 C-4 9 -4 9 -4 11 C-5.85625 10.566875 -5.85625 10.566875 -7.75 10.125 C-16.38884131 8.37219162 -25.23170339 7.79386907 -34 7 C-33.67 5.68 -33.34 4.36 -33 3 C-32.30962646 2.98018066 -31.61925293 2.96036133 -30.90795898 2.93994141 C-27.75078529 2.84411707 -24.59422178 2.73467186 -21.4375 2.625 C-20.35146484 2.5940625 -19.26542969 2.563125 -18.14648438 2.53125 C-12.03986858 2.30851629 -5.85154896 0 0 0 Z " fill="#4B667E" transform="translate(296,127)"/>
<path d="M0 0 C4.27077656 -0.05794812 8.54145236 -0.09357874 12.8125 -0.125 C14.02744141 -0.14175781 15.24238281 -0.15851563 16.49414062 -0.17578125 C17.65751953 -0.18222656 18.82089844 -0.18867188 20.01953125 -0.1953125 C21.62985229 -0.21102295 21.62985229 -0.21102295 23.27270508 -0.22705078 C26 0 26 0 29 2 C31.64632287 1.6878236 31.64632287 1.6878236 34 1 C33.67 1.99 33.34 2.98 33 4 C32.34 4 31.68 4 31 4 C31 4.66 31 5.32 31 6 C33.475 6.495 33.475 6.495 36 7 C35.67 7.66 35.34 8.32 35 9 C32.03061004 8.57580143 29.33114157 8.12994163 26.53125 7.03125 C21.45514631 5.54884804 16.38327208 5.27001798 11.125 4.875 C10.05507813 4.78863281 8.98515625 4.70226562 7.8828125 4.61328125 C5.25566301 4.40217102 2.62816789 4.19795597 0 4 C0 2.68 0 1.36 0 0 Z " fill="#5A7288" transform="translate(411,130)"/>
<path d="M0 0 C0 0.66 0 1.32 0 2 C-0.67546875 2.08636719 -1.3509375 2.17273438 -2.046875 2.26171875 C-7.89969251 3.13239726 -7.89969251 3.13239726 -12.625 6.5 C-14.16063958 8.81654229 -14.16063958 8.81654229 -14 11 C-14.66 11 -15.32 11 -16 11 C-16 11.66 -16 12.32 -16 13 C-21.61 12.34 -27.22 11.68 -33 11 C-33 9.35 -33 7.7 -33 6 C-28.94426283 5.14038491 -24.88745351 4.28604533 -20.82958984 3.43652344 C-19.45005509 3.14694746 -18.07081877 2.8559459 -16.69189453 2.56347656 C-14.7068278 2.14270539 -12.72073512 1.7271167 -10.734375 1.3125 C-9.54038086 1.06113281 -8.34638672 0.80976562 -7.11621094 0.55078125 C-4 0 -4 0 0 0 Z " fill="#436383" transform="translate(405,99)"/>
<path d="M0 0 C1.16781006 0.00523682 2.33562012 0.01047363 3.53881836 0.01586914 C4.79887695 0.0190918 6.05893555 0.02231445 7.35717773 0.02563477 C8.6976732 0.03399136 10.03816799 0.04245632 11.37866211 0.05102539 C12.72306153 0.05603879 14.06746271 0.06060197 15.41186523 0.06469727 C18.71334151 0.07653051 22.01473014 0.09301568 25.31616211 0.11352539 C25.64616211 0.77352539 25.97616211 1.43352539 26.31616211 2.11352539 C25.65616211 2.11352539 24.99616211 2.11352539 24.31616211 2.11352539 C24.97616211 3.76352539 25.63616211 5.41352539 26.31616211 7.11352539 C25.24366211 6.96012695 24.17116211 6.80672852 23.06616211 6.64868164 C17.4989138 5.9527756 11.91902769 5.76490199 6.31616211 5.55102539 C5.25526367 5.5078418 4.19436523 5.4646582 3.10131836 5.42016602 C0.5063706 5.31496543 -2.08865873 5.2128242 -4.68383789 5.11352539 C-3.56320494 0.1507223 -3.56320494 0.1507223 0 0 Z " fill="#516B83" transform="translate(340.683837890625,304.886474609375)"/>
<path d="M0 0 C10.23 0 20.46 0 31 0 C30.67 0.99 30.34 1.98 30 3 C38.58 3 47.16 3 56 3 C56 3.33 56 3.66 56 4 C35.87 4 15.74 4 -5 4 C-3.68 3.67 -2.36 3.34 -1 3 C-0.67 2.01 -0.34 1.02 0 0 Z " fill="#2F5171" transform="translate(279,314)"/>
<path d="M0 0 C-0.62759865 2.92879371 -1.58622659 5.36095629 -3 8 C-2.01 8.66 -1.02 9.32 0 10 C-6.93 9.34 -13.86 8.68 -21 8 C-20.67 6.02 -20.34 4.04 -20 2 C-17.60468244 1.66254646 -15.20885732 1.3299171 -12.8125 1 C-12.13896484 0.90460938 -11.46542969 0.80921875 -10.77148438 0.7109375 C-7.15335423 0.21675387 -3.65203599 -0.11346131 0 0 Z " fill="#44617E" transform="translate(403,77)"/>
<path d="M0 0 C1.15242187 0.00902344 2.30484375 0.01804688 3.4921875 0.02734375 C4.36101562 0.03894531 5.22984375 0.05054688 6.125 0.0625 C6.455 1.0525 6.785 2.0425 7.125 3.0625 C4.03782142 6.20448057 2.61747634 7.04127673 -1.86328125 7.234375 C-3.30666384 7.11574081 -4.74834494 6.97454963 -6.1875 6.8125 C-6.92806641 6.74675781 -7.66863281 6.68101562 -8.43164062 6.61328125 C-10.24796459 6.44922618 -12.06184686 6.25851656 -13.875 6.0625 C-13.545 4.4125 -13.215 2.7625 -12.875 1.0625 C-8.52167264 0.22226812 -4.43057481 -0.04520995 0 0 Z " fill="#32516D" transform="translate(132.875,203.9375)"/>
<path d="M0 0 C-0.99 0.495 -0.99 0.495 -2 1 C-1.67 1.66 -1.34 2.32 -1 3 C-3.31 3.33 -5.62 3.66 -8 4 C-8 4.66 -8 5.32 -8 6 C-10.45275141 7.2263757 -12.0505781 7.11415314 -14.7890625 7.09765625 C-15.73007812 7.09443359 -16.67109375 7.09121094 -17.640625 7.08789062 C-18.62546875 7.07951172 -19.6103125 7.07113281 -20.625 7.0625 C-22.11386719 7.05573242 -22.11386719 7.05573242 -23.6328125 7.04882812 C-26.0886016 7.03702145 -28.54427104 7.020554 -31 7 C-31.33 6.34 -31.66 5.68 -32 5 C-31.67 4.34 -31.34 3.68 -31 3 C-29.90042969 2.96261719 -28.80085938 2.92523438 -27.66796875 2.88671875 C-19.81454689 2.55763992 -12.61641514 2.05940944 -5.1015625 -0.4765625 C-3 -1 -3 -1 0 0 Z " fill="#687C92" transform="translate(378,278)"/>
<path d="M0 0 C-0.639375 0.268125 -1.27875 0.53625 -1.9375 0.8125 C-4.33131686 1.88667752 -4.33131686 1.88667752 -5 5 C-5.66 5.66 -6.32 6.32 -7 7 C-7.33 7.66 -7.66 8.32 -8 9 C-13.3922614 10.33070829 -18.60270744 10.03352411 -24 9 C-24 8.67 -24 8.34 -24 8 C-21.69 8 -19.38 8 -17 8 C-17.99 7.34 -18.98 6.68 -20 6 C-19.67 5.01 -19.34 4.02 -19 3 C-16.53176735 2.08297267 -14.22867292 1.37756749 -11.6875 0.75 C-11.01009766 0.564375 -10.33269531 0.37875 -9.63476562 0.1875 C-6.14191689 -0.71388032 -3.42066048 -1.37178158 0 0 Z " fill="#4C6985" transform="translate(239,227)"/>
<path d="M0 0 C7.92 0 15.84 0 24 0 C23.01 0.495 23.01 0.495 22 1 C22.33 2.32 22.66 3.64 23 5 C15.08 5 7.16 5 -1 5 C-0.67 3.35 -0.34 1.7 0 0 Z " fill="#4E6881" transform="translate(77,305)"/>
<path d="M0 0 C-1.32 0.33 -2.64 0.66 -4 1 C-4 1.66 -4 2.32 -4 3 C-6.64 3.33 -9.28 3.66 -12 4 C-12.33 4.99 -12.66 5.98 -13 7 C-20.92 7.495 -20.92 7.495 -29 8 C-28.67 6.35 -28.34 4.7 -28 3 C-24.27153308 2.49468813 -20.54212492 1.9966867 -16.8125 1.5 C-15.22985352 1.28537109 -15.22985352 1.28537109 -13.61523438 1.06640625 C-12.59365234 0.93105469 -11.57207031 0.79570313 -10.51953125 0.65625 C-9.58214111 0.53056641 -8.64475098 0.40488281 -7.67895508 0.27539062 C-5.09682192 0.00995308 -2.59349011 -0.04936064 0 0 Z " fill="#536C84" transform="translate(212,51)"/>
<path d="M0 0 C0 0.66 0 1.32 0 2 C-1.65 2 -3.3 2 -5 2 C-5 2.66 -5 3.32 -5 4 C-4.34 4.33 -3.68 4.66 -3 5 C-9.93 5 -16.86 5 -24 5 C-24.33 4.01 -24.66 3.02 -25 2 C-24.67 1.34 -24.34 0.68 -24 0 C-20.75052139 -0.19738568 -17.50041127 -0.3811754 -14.25 -0.5625 C-13.32960938 -0.61857422 -12.40921875 -0.67464844 -11.4609375 -0.73242188 C-10.57148438 -0.78076172 -9.68203125 -0.82910156 -8.765625 -0.87890625 C-7.94868164 -0.9260376 -7.13173828 -0.97316895 -6.29003906 -1.02172852 C-4.02117925 -1.00020095 -2.16679079 -0.64612135 0 0 Z " fill="#5D758C" transform="translate(414,180)"/>
<path d="M0 0 C8.91 0 17.82 0 27 0 C25.68 0.99 24.36 1.98 23 3 C22.67 3.99 22.34 4.98 22 6 C21.34 6 20.68 6 20 6 C19.67 5.34 19.34 4.68 19 4 C18.67 4.33 18.34 4.66 18 5 C11.93718558 5.40182396 5.99329281 4.88789523 0 4 C0 2.68 0 1.36 0 0 Z " fill="#4B657C" transform="translate(222,281)"/>
<path d="M0 0 C0.33 0.66 0.66 1.32 1 2 C-0.93166016 2.09087891 -0.93166016 2.09087891 -2.90234375 2.18359375 C-4.58074159 2.26798247 -6.25912636 2.3526313 -7.9375 2.4375 C-9.21270508 2.49647461 -9.21270508 2.49647461 -10.51367188 2.55664062 C-11.32255859 2.59853516 -12.13144531 2.64042969 -12.96484375 2.68359375 C-13.7137085 2.72025146 -14.46257324 2.75690918 -15.23413086 2.79467773 C-17.02461326 2.81771063 -17.02461326 2.81771063 -18 4 C-16.68 4.66 -15.36 5.32 -14 6 C-18.62 6 -23.24 6 -28 6 C-28.33 5.34 -28.66 4.68 -29 4 C-28.67 3.01 -28.34 2.02 -28 1 C-18.62895894 0.11504503 -9.40228594 -0.1170409 0 0 Z " fill="#556E83" transform="translate(407,204)"/>
<path d="M0 0 C6.74233419 -0.12910853 13.30386804 0.202163 20 1 C20 2.33333333 20 3.66666667 20 5 C17.06243881 5.0269501 14.12512445 5.04681474 11.1875 5.0625 C10.35412109 5.07087891 9.52074219 5.07925781 8.66210938 5.08789062 C7.45844727 5.09272461 7.45844727 5.09272461 6.23046875 5.09765625 C5.12288208 5.10551147 5.12288208 5.10551147 3.99291992 5.11352539 C2 5 2 5 -1 4 C-0.67 2.68 -0.34 1.36 0 0 Z " fill="#49667E" transform="translate(88,280)"/>
<path d="M0 0 C1.17433594 0.01417969 2.34867187 0.02835937 3.55859375 0.04296875 C5.32396484 0.05263672 5.32396484 0.05263672 7.125 0.0625 C9.99609375 0.23046875 9.99609375 0.23046875 10.99609375 1.23046875 C11.03690158 3.23005239 11.03863731 5.23092129 10.99609375 7.23046875 C10.16464844 7.15828125 9.33320312 7.08609375 8.4765625 7.01171875 C7.38988281 6.91890625 6.30320312 6.82609375 5.18359375 6.73046875 C4.10464844 6.63765625 3.02570313 6.54484375 1.9140625 6.44921875 C-1.01481436 6.19309037 -1.01481436 6.19309037 -4.00390625 6.23046875 C-3.67390625 5.24046875 -3.34390625 4.25046875 -3.00390625 3.23046875 C-3.66390625 2.90046875 -4.32390625 2.57046875 -5.00390625 2.23046875 C-3.00390625 0.23046875 -3.00390625 0.23046875 0 0 Z " fill="#2F5172" transform="translate(505.00390625,119.76953125)"/>
<path d="M0 0 C3.94727588 -0.17942163 6.5980513 -0.09350689 10 2 C10 2.66 10 3.32 10 4 C11.299375 4.144375 12.59875 4.28875 13.9375 4.4375 C17.875 4.875 17.875 4.875 19 6 C21.32817964 6.36760731 23.6618385 6.70241581 26 7 C26 7.66 26 8.32 26 9 C26.99 9.33 27.98 9.66 29 10 C22.6579094 9.14539205 16.36480793 8.04460934 10.0625 6.9375 C8.99708984 6.75123047 7.93167969 6.56496094 6.83398438 6.37304688 C4.22248608 5.91632744 1.61116522 5.45861916 -1 5 C-0.67 3.35 -0.34 1.7 0 0 Z " fill="#4D647F" transform="translate(173,79)"/>
<path d="M0 0 C5.28 0 10.56 0 16 0 C16 1.65 16 3.3 16 5 C10.39 5 4.78 5 -1 5 C-0.67 3.35 -0.34 1.7 0 0 Z " fill="#3D5B76" transform="translate(393,54)"/>
<path d="M0 0 C4.95 0 9.9 0 15 0 C15 0.99 15 1.98 15 3 C16.216875 2.95875 17.43375 2.9175 18.6875 2.875 C22.21894127 2.86245492 24.80003566 3.40001783 28 5 C25 6 25 6 22 5 C20.22833025 4.85164052 18.45232388 4.75229982 16.67578125 4.68359375 C15.64775391 4.64169922 14.61972656 4.59980469 13.56054688 4.55664062 C11.95276367 4.49766602 11.95276367 4.49766602 10.3125 4.4375 C9.22904297 4.39431641 8.14558594 4.35113281 7.02929688 4.30664062 C4.35299209 4.20053162 1.67659474 4.09847639 -1 4 C-0.67 2.68 -0.34 1.36 0 0 Z " fill="#4C6980" transform="translate(337,306)"/>
<path d="M0 0 C-7.21454219 6.01211849 -7.21454219 6.01211849 -12.453125 5.9765625 C-13.70609375 5.86054688 -14.9590625 5.74453125 -16.25 5.625 C-17.51328125 5.51414062 -18.7765625 5.40328125 -20.078125 5.2890625 C-21.04234375 5.19367188 -22.0065625 5.09828125 -23 5 C-23 4.01 -23 3.02 -23 2 C-7.25512528 -0.29612756 -7.25512528 -0.29612756 0 0 Z " fill="#34516D" transform="translate(240,254)"/>
<path d="M0 0 C6.27 0 12.54 0 19 0 C19 1.65 19 3.3 19 5 C16.39547729 4.85913398 13.79149803 4.71251536 11.1875 4.5625 C10.08051758 4.50352539 10.08051758 4.50352539 8.95117188 4.44335938 C5.76928658 4.25618965 3.03837622 4.01279207 0 3 C0 2.01 0 1.02 0 0 Z " fill="#335270" transform="translate(400,156)"/>
<path d="M0 0 C4.95 0 9.9 0 15 0 C14.67 1.65 14.34 3.3 14 5 C8.49983036 6.30267176 3.52967941 5.71033431 -2 5 C-1.34 3.35 -0.68 1.7 0 0 Z " fill="#41607C" transform="translate(389,206)"/>
<path d="M0 0 C0.99 0 1.98 0 3 0 C3 0.66 3 1.32 3 2 C6.96 2.33 10.92 2.66 15 3 C15 3.33 15 3.66 15 4 C11.37 4 7.74 4 4 4 C3.67 5.65 3.34 7.3 3 9 C2.34 9.66 1.68 10.32 1 11 C0.67 9.35 0.34 7.7 0 6 C-5.94 5.34 -11.88 4.68 -18 4 C-18 3.67 -18 3.34 -18 3 C-16.86820312 2.95101562 -15.73640625 2.90203125 -14.5703125 2.8515625 C-13.08851661 2.77653486 -11.606747 2.70098703 -10.125 2.625 C-9.37863281 2.5940625 -8.63226563 2.563125 -7.86328125 2.53125 C-3.46526812 2.44356169 -3.46526812 2.44356169 0 0 Z " fill="#5C748A" transform="translate(515,115)"/>
<path d="M0 0 C-0.9481262 2.37031549 -1.68896678 3.76672508 -3.75 5.3125 C-6.75172093 6.22969251 -8.97769126 5.68688835 -12 5 C-12 4.34 -12 3.68 -12 3 C-18.93 2.67 -25.86 2.34 -33 2 C-33 1.67 -33 1.34 -33 1 C-32.26362305 0.97494385 -31.52724609 0.9498877 -30.76855469 0.92407227 C-27.42886622 0.80795727 -24.08944903 0.68530082 -20.75 0.5625 C-19.59113281 0.52318359 -18.43226563 0.48386719 -17.23828125 0.44335938 C-15.56572266 0.38051758 -15.56572266 0.38051758 -13.859375 0.31640625 C-12.31975098 0.26141968 -12.31975098 0.26141968 -10.74902344 0.20532227 C-1.50842355 -0.48485043 -1.50842355 -0.48485043 0 0 Z " fill="#314F6C" transform="translate(265,305)"/>
<path d="M0 0 C0.33 0.66 0.66 1.32 1 2 C0.09176973 4.43557572 -0.86828071 6.76195517 -1.9375 9.125 C-2.22818359 9.78371094 -2.51886719 10.44242188 -2.81835938 11.12109375 C-3.53860198 12.75049505 -4.26841143 14.37566132 -5 16 C-5.33 16 -5.66 16 -6 16 C-5.67 13.69 -5.34 11.38 -5 9 C-10.28 9 -15.56 9 -21 9 C-21 8.67 -21 8.34 -21 8 C-19.865625 7.855625 -18.73125 7.71125 -17.5625 7.5625 C-14.19222799 7.38828522 -14.19222799 7.38828522 -13 6 C-11.48530552 5.76807135 -9.96245438 5.58784762 -8.4375 5.4375 C-7.61121094 5.35371094 -6.78492188 5.26992187 -5.93359375 5.18359375 C-4.97646484 5.09271484 -4.97646484 5.09271484 -4 5 C-3.896875 4.360625 -3.79375 3.72125 -3.6875 3.0625 C-3.460625 2.381875 -3.23375 1.70125 -3 1 C-2.01 0.67 -1.02 0.34 0 0 Z " fill="#768B9E" transform="translate(469,237)"/>
<path d="M0 0 C5.28 0.33 10.56 0.66 16 1 C15.34 2.32 14.68 3.64 14 5 C9.05 5 4.1 5 -1 5 C-0.67 3.35 -0.34 1.7 0 0 Z " fill="#54718A" transform="translate(369,230)"/>
<path d="M0 0 C7.59 0 15.18 0 23 0 C22.67 1.65 22.34 3.3 22 5 C18.04 5 14.08 5 10 5 C10.33 4.01 10.66 3.02 11 2 C7.37 1.67 3.74 1.34 0 1 C0 0.67 0 0.34 0 0 Z " fill="#324F6A" transform="translate(373,230)"/>
<path d="M0 0 C-0.99 0 -1.98 0 -3 0 C-3 0.66 -3 1.32 -3 2 C-3.99 2 -4.98 2 -6 2 C-6 2.66 -6 3.32 -6 4 C-3.69 4.33 -1.38 4.66 1 5 C1 5.33 1 5.66 1 6 C-4.28 6 -9.56 6 -15 6 C-15 4.35 -15 2.7 -15 1 C-13.25215171 0.63536268 -11.50159498 0.2836922 -9.75 -0.0625 C-8.28820312 -0.35833984 -8.28820312 -0.35833984 -6.796875 -0.66015625 C-4.131881 -0.98397535 -2.51128277 -0.85503199 0 0 Z " fill="#365670" transform="translate(145,179)"/>
<path d="M0 0 C6.6 0 13.2 0 20 0 C19.01 0.495 19.01 0.495 18 1 C18 1.66 18 2.32 18 3 C11.73 3 5.46 3 -1 3 C-0.67 2.01 -0.34 1.02 0 0 Z " fill="#2F4E6B" transform="translate(349,281)"/>
<path d="M0 0 C26.80555556 0.80555556 26.80555556 0.80555556 32 6 C21.17126036 5.49279908 10.60054575 3.12424249 0 1 C0 0.67 0 0.34 0 0 Z " fill="#708294" transform="translate(243,263)"/>
<path d="M0 0 C3.63 0 7.26 0 11 0 C9.68 0.33 8.36 0.66 7 1 C7 1.66 7 2.32 7 3 C11.29 3.33 15.58 3.66 20 4 C20 4.33 20 4.66 20 5 C13.07 5 6.14 5 -1 5 C-0.67 3.35 -0.34 1.7 0 0 Z " fill="#657B90" transform="translate(99,255)"/>
<path d="M0 0 C3.63 0 7.26 0 11 0 C13 4 13 4 13 8 C10.85270859 7.71926927 8.70716807 7.42511501 6.5625 7.125 C5.36753906 6.96257812 4.17257813 6.80015625 2.94140625 6.6328125 C1.97074219 6.42398438 1.00007812 6.21515625 0 6 C-0.33 5.34 -0.66 4.68 -1 4 C1.97 4 4.94 4 8 4 C7.67 3.34 7.34 2.68 7 2 C4.67843403 1.59270772 2.3431213 1.25561323 0 1 C0 0.67 0 0.34 0 0 Z " fill="#556E84" transform="translate(169,129)"/>
<path d="M0 0 C2.11434065 3.17151097 3.01955937 5.86432861 4.125 9.5 C4.47820312 10.6446875 4.83140625 11.789375 5.1953125 12.96875 C6 16 6 16 6 19 C3.53199953 17.84826645 1.95216435 16.95216435 0 15 C-0.99 15.495 -0.99 15.495 -2 16 C-1.625 14.0625 -1.625 14.0625 -1 12 C-0.34 11.67 0.32 11.34 1 11 C0.67 10.67 0.34 10.34 0 10 C-0.04092937 7.66702567 -0.04241723 5.33294775 0 3 C-0.66 2.67 -1.32 2.34 -2 2 C-1.34 2 -0.68 2 0 2 C0 1.34 0 0.68 0 0 Z " fill="#4C6379" transform="translate(331,299)"/>
<path d="M0 0 C-1.98 0.99 -1.98 0.99 -4 2 C-3.67 2.99 -3.34 3.98 -3 5 C-2.34 5.33 -1.68 5.66 -1 6 C-5.00200378 7.60080151 -8.04556236 6.29279692 -12 5 C-12 4.34 -12 3.68 -12 3 C-13.32 2.67 -14.64 2.34 -16 2 C-13.69 2.33 -11.38 2.66 -9 3 C-9 2.34 -9 1.68 -9 1 C-5.8035914 -0.06546953 -3.34252724 -0.07427838 0 0 Z " fill="#315270" transform="translate(151,178)"/>
<path d="M0 0 C5.94 0 11.88 0 18 0 C16.68 0.99 15.36 1.98 14 3 C13.67 3.99 13.34 4.98 13 6 C12.34 6 11.68 6 11 6 C10.67 5.34 10.34 4.68 10 4 C9.67 4.33 9.34 4.66 9 5 C7.33382885 5.04063832 5.66611905 5.042721 4 5 C4 4.01 4 3.02 4 2 C2.68 2 1.36 2 0 2 C0 1.34 0 0.68 0 0 Z " fill="#32516C" transform="translate(231,281)"/>
<path d="M0 0 C1.98 0 3.96 0 6 0 C5.67 0.66 5.34 1.32 5 2 C5.66 2.33 6.32 2.66 7 3 C7 3.66 7 4.32 7 5 C7.99 5.33 8.98 5.66 10 6 C4.21408489 6.10477512 -1.29309366 5.99250545 -7 5 C-7 4.67 -7 4.34 -7 4 C-5.02 4 -3.04 4 -1 4 C-0.67 2.68 -0.34 1.36 0 0 Z " fill="#53708A" transform="translate(119,231)"/>
<path d="M0 0 C2.97 0 5.94 0 9 0 C9.33 0.66 9.66 1.32 10 2 C9.67 2.99 9.34 3.98 9 5 C5.7 5 2.4 5 -1 5 C-0.67 3.35 -0.34 1.7 0 0 Z " fill="#48637A" transform="translate(109,230)"/>
<path d="M0 0 C1.07636719 0.00322266 2.15273437 0.00644531 3.26171875 0.00976562 C4.38964844 0.01814453 5.51757812 0.02652344 6.6796875 0.03515625 C7.81535156 0.03966797 8.95101562 0.04417969 10.12109375 0.04882812 C12.93234388 0.0606401 15.7434898 0.07711118 18.5546875 0.09765625 C18.2246875 0.75765625 17.8946875 1.41765625 17.5546875 2.09765625 C16.925625 2.07445312 16.2965625 2.05125 15.6484375 2.02734375 C9.85448158 1.90518203 5.12688894 2.56049723 -0.4453125 4.09765625 C-1.7653125 4.09765625 -3.0853125 4.09765625 -4.4453125 4.09765625 C-4.4453125 3.43765625 -4.4453125 2.77765625 -4.4453125 2.09765625 C-5.4353125 1.76765625 -6.4253125 1.43765625 -7.4453125 1.09765625 C-4.83580014 -0.20709993 -2.91829965 -0.01535947 0 0 Z " fill="#324E67" transform="translate(142.4453125,296.90234375)"/>
<path d="M0 0 C-1.95447015 1.04703758 -3.71599832 1.93400791 -5.8828125 2.4375 C-8.17589929 3.04673339 -10.0318418 3.95225069 -12.125 5.0625 C-15.77935943 7 -15.77935943 7 -18 7 C-18 6.34 -18 5.68 -18 5 C-18.99 4.67 -19.98 4.34 -21 4 C-18.25336296 3.13343002 -15.5035757 2.28148214 -12.75 1.4375 C-11.97269531 1.19064453 -11.19539063 0.94378906 -10.39453125 0.68945312 C-9.26337891 0.34624023 -9.26337891 0.34624023 -8.109375 -0.00390625 C-7.07248535 -0.32597046 -7.07248535 -0.32597046 -6.01464844 -0.65454102 C-3.71321296 -1.0491764 -2.20383318 -0.71084423 0 0 Z " fill="#5F768A" transform="translate(134,274)"/>
<path d="M0 0 C7.92 0 15.84 0 24 0 C24 0.33 24 0.66 24 1 C21.69 1 19.38 1 17 1 C17 1.66 17 2.32 17 3 C14.35319096 2.88660796 11.70822482 2.75987127 9.0625 2.625 C8.30775391 2.5940625 7.55300781 2.563125 6.77539062 2.53125 C4.84492605 2.4273685 2.92057919 2.22104386 1 2 C0.67 1.34 0.34 0.68 0 0 Z " fill="#344F69" transform="translate(390,297)"/>
<path d="M0 0 C2.97 0 5.94 0 9 0 C8.01 0.495 8.01 0.495 7 1 C7 1.99 7 2.98 7 4 C8.32 4.33 9.64 4.66 11 5 C7.04 5 3.08 5 -1 5 C-0.67 3.35 -0.34 1.7 0 0 Z " fill="#354F65" transform="translate(120,205)"/>
<path d="M0 0 C1.82421875 1.21484375 1.82421875 1.21484375 3.6875 2.9375 C4.62142578 3.78634766 4.62142578 3.78634766 5.57421875 4.65234375 C6.04472656 5.09707031 6.51523437 5.54179687 7 6 C2.8204355 8.78637633 0.85331323 7.79562512 -4 7 C-4 6.01 -4 5.02 -4 4 C-3.34 4 -2.68 4 -2 4 C-2.33 3.01 -2.66 2.02 -3 1 C-2.01 0.67 -1.02 0.34 0 0 Z " fill="#4F6B85" transform="translate(429,157)"/>
<path d="M0 0 C0 0.66 0 1.32 0 2 C-0.66 2 -1.32 2 -2 2 C-2.33 3.98 -2.66 5.96 -3 8 C-5.64 8 -8.28 8 -11 8 C-10.34 7.67 -9.68 7.34 -9 7 C-8.855625 6.195625 -8.71125 5.39125 -8.5625 4.5625 C-7.50263266 -0.26578456 -4.27753262 -0.23121798 0 0 Z " fill="#315170" transform="translate(412,204)"/>
<path d="M0 0 C1 3 1 3 0.07421875 5.33984375 C-0.38339844 6.19707031 -0.84101563 7.05429687 -1.3125 7.9375 C-1.98732422 9.21947266 -1.98732422 9.21947266 -2.67578125 10.52734375 C-3.11277344 11.34332031 -3.54976563 12.15929687 -4 13 C-4.6711522 14.33108112 -5.33954203 15.66358035 -6 17 C-6 16.34 -6 15.68 -6 15 C-6.66 14.67 -7.32 14.34 -8 14 C-8 10 -8 10 -7 7 C-6.360625 6.87625 -5.72125 6.7525 -5.0625 6.625 C-4.381875 6.41875 -3.70125 6.2125 -3 6 C-1.76709799 3.54295238 -1.76709799 3.54295238 -1 1 C-0.67 0.67 -0.34 0.34 0 0 Z " fill="#5F7A90" transform="translate(456,267)"/>
<path d="M0 0 C0 0.33 0 0.66 0 1 C-0.85722656 1.04898437 -1.71445312 1.09796875 -2.59765625 1.1484375 C-9.86393118 1.52030774 -9.86393118 1.52030774 -16.9375 3.0625 C-20.11959681 4.03661127 -22.6933062 4.16130214 -26 4 C-26 3.01 -26 2.02 -26 1 C-17.31126982 0.10884819 -8.73139464 -0.11624638 0 0 Z " fill="#6C8298" transform="translate(293,272)"/>
<path d="M0 0 C0 0.66 0 1.32 0 2 C-0.69867188 2.12117188 -1.39734375 2.24234375 -2.1171875 2.3671875 C-3.02726562 2.53476563 -3.93734375 2.70234375 -4.875 2.875 C-5.77992188 3.03742188 -6.68484375 3.19984375 -7.6171875 3.3671875 C-10.16505988 3.83044703 -10.16505988 3.83044703 -12 6 C-14.3828125 5.9765625 -14.3828125 5.9765625 -17.125 5.625 C-18.03507812 5.51414062 -18.94515625 5.40328125 -19.8828125 5.2890625 C-20.93082031 5.14597656 -20.93082031 5.14597656 -22 5 C-22 4.67 -22 4.34 -22 4 C-19.08444885 3.32810344 -16.16773049 2.66230692 -13.25 2 C-12.0125 1.71382813 -12.0125 1.71382813 -10.75 1.421875 C-9.95078125 1.24140625 -9.1515625 1.0609375 -8.328125 0.875 C-7.5949707 0.70742187 -6.86181641 0.53984375 -6.10644531 0.3671875 C-4 0 -4 0 0 0 Z " fill="#657E91" transform="translate(405,99)"/>
<path d="M0 0 C2.1875 0.3125 2.1875 0.3125 4 1 C3.67 1.66 3.34 2.32 3 3 C2.34 3 1.68 3 1 3 C1 3.66 1 4.32 1 5 C2.65 5.33 4.3 5.66 6 6 C5.67 6.66 5.34 7.32 5 8 C0.80530429 7.40075776 -3.00999834 6.42500059 -7 5 C-6.401875 4.731875 -5.80375 4.46375 -5.1875 4.1875 C-2.94489213 3.1305255 -2.94489213 3.1305255 -1.5 1.3125 C-0.7575 0.6628125 -0.7575 0.6628125 0 0 Z " fill="#59758B" transform="translate(441,131)"/>
<path d="M0 0 C1.79244141 0.01740234 1.79244141 0.01740234 3.62109375 0.03515625 C5.41740234 0.04869141 5.41740234 0.04869141 7.25 0.0625 C8.17683594 0.07410156 9.10367187 0.08570313 10.05859375 0.09765625 C9.72859375 1.08765625 9.39859375 2.07765625 9.05859375 3.09765625 C4.43859375 3.09765625 -0.18140625 3.09765625 -4.94140625 3.09765625 C-3.44984649 0.11453674 -3.44984649 0.11453674 0 0 Z " fill="#30516D" transform="translate(424.94140625,130.90234375)"/>
<path d="M0 0 C0 0.99 0 1.98 0 3 C0.66 3.33 1.32 3.66 2 4 C0.28335317 6.07804617 -0.85081159 6.95027053 -3.4375 7.8125 C-6.31664378 8.02316906 -7.58978936 7.51754003 -10 6 C-9.01 5.34 -8.02 4.68 -7 4 C-6.154375 3.29875 -5.30875 2.5975 -4.4375 1.875 C-2 0 -2 0 0 0 Z " fill="#33526F" transform="translate(237,230)"/>
<path d="M0 0 C4.29 0 8.58 0 13 0 C12.67 0.99 12.34 1.98 12 3 C7.71 3 3.42 3 -1 3 C-0.67 2.01 -0.34 1.02 0 0 Z " fill="#30506C" transform="translate(106,256)"/>
<path d="M0 0 C-1 3 -1 3 -3 4 C-5.37402501 4.07116382 -7.75000677 4.08409085 -10.125 4.0625 C-11.40632812 4.05347656 -12.68765625 4.04445312 -14.0078125 4.03515625 C-15.48894531 4.01775391 -15.48894531 4.01775391 -17 4 C-14.19547298 2.48300584 -11.6142698 1.54691437 -8.5 0.875 C-7.7471875 0.70742187 -6.994375 0.53984375 -6.21875 0.3671875 C-4 0 -4 0 0 0 Z " fill="#61788E" transform="translate(146,224)"/>
<path d="M0 0 C-2.88087546 2.40072955 -5.56404834 4.47291037 -9 6 C-9.33 5.01 -9.66 4.02 -10 3 C-11.65 2.67 -13.3 2.34 -15 2 C-15 1.67 -15 1.34 -15 1 C-9.91913204 0.15318867 -5.15171623 -0.09038099 0 0 Z " fill="#3F5F77" transform="translate(240,254)"/>
<path d="M0 0 C3.3 0 6.6 0 10 0 C10.33 0.99 10.66 1.98 11 3 C7.37 3.33 3.74 3.66 0 4 C0 2.68 0 1.36 0 0 Z " fill="#2D5272" transform="translate(166,130)"/>
<path d="M0 0 C2.64 0 5.28 0 8 0 C8 0.66 8 1.32 8 2 C8.66 2.33 9.32 2.66 10 3 C6.78548731 4.60725635 3.56387464 4.05748185 0 4 C0 2.68 0 1.36 0 0 Z " fill="#556B81" transform="translate(358,256)"/>
<path d="M0 0 C1.4540625 0.0309375 1.4540625 0.0309375 2.9375 0.0625 C3.2675 1.0525 3.5975 2.0425 3.9375 3.0625 C4.2675 3.7225 4.5975 4.3825 4.9375 5.0625 C2.2975 5.0625 -0.3425 5.0625 -3.0625 5.0625 C-3.625 3.125 -3.625 3.125 -4.0625 1.0625 C-3.0625 0.0625 -3.0625 0.0625 0 0 Z " fill="#34506B" transform="translate(217.0625,229.9375)"/>
<path d="M0 0 C-1.32 0.33 -2.64 0.66 -4 1 C-4 1.66 -4 2.32 -4 3 C-7.63 3.66 -11.26 4.32 -15 5 C-14.67 4.01 -14.34 3.02 -14 2 C-9.24983365 -0.2012966 -5.11918146 -0.1765235 0 0 Z " fill="#51697F" transform="translate(465,122)"/>
<path d="M0 0 C2.00293347 3.00440021 2.49271626 4.70993945 3.125 8.1875 C3.29257812 9.08855469 3.46015625 9.98960937 3.6328125 10.91796875 C3.75398438 11.60503906 3.87515625 12.29210937 4 13 C3.01 12.67 2.02 12.34 1 12 C1 10.68 1 9.36 1 8 C0.01 7.67 -0.98 7.34 -2 7 C-2.33 6.01 -2.66 5.02 -3 4 C-2.01 4 -1.02 4 0 4 C0 2.68 0 1.36 0 0 Z " fill="#587087" transform="translate(327,286)"/>
<path d="M0 0 C7.59 0 15.18 0 23 0 C23 0.33 23 0.66 23 1 C16.4 1.33 9.8 1.66 3 2 C3 2.66 3 3.32 3 4 C1.68 4 0.36 4 -1 4 C-0.67 2.68 -0.34 1.36 0 0 Z " fill="#617489" transform="translate(263,130)"/>
<path d="M0 0 C0.33 0.99 0.66 1.98 1 3 C3.01508358 3.73323796 3.01508358 3.73323796 5 4 C-0.36891879 3.50130596 -5.69235173 2.97772468 -11 2 C-4.02255639 -1.60902256 -4.02255639 -1.60902256 0 0 Z " fill="#6F87A0" transform="translate(173,107)"/>
<path d="M0 0 C-0.825 0.45375 -1.65 0.9075 -2.5 1.375 C-3.325 1.91125 -4.15 2.4475 -5 3 C-5 3.66 -5 4.32 -5 5 C-6 6.625 -6 6.625 -8 8 C-10.71858679 8.2627431 -13.25763951 8.13487019 -16 8 C-16 7.67 -16 7.34 -16 7 C-15.21625 6.855625 -14.4325 6.71125 -13.625 6.5625 C-11.03578982 6.12201075 -11.03578982 6.12201075 -9 5 C-8.731875 4.360625 -8.46375 3.72125 -8.1875 3.0625 C-6.34638612 -0.13522412 -3.42863696 -1.71431848 0 0 Z " fill="#69839A" transform="translate(404,228)"/>
<path d="M0 0 C-0.99 0 -1.98 0 -3 0 C-3 0.66 -3 1.32 -3 2 C-4.6396875 1.9071875 -4.6396875 1.9071875 -6.3125 1.8125 C-9.92126083 1.64402086 -9.92126083 1.64402086 -11.9375 3.5 C-12.288125 3.995 -12.63875 4.49 -13 5 C-12.01 5.33 -11.02 5.66 -10 6 C-11.65 6 -13.3 6 -15 6 C-15 4.35 -15 2.7 -15 1 C-13.25215171 0.63536268 -11.50159498 0.2836922 -9.75 -0.0625 C-8.28820312 -0.35833984 -8.28820312 -0.35833984 -6.796875 -0.66015625 C-4.131881 -0.98397535 -2.51128277 -0.85503199 0 0 Z " fill="#93A1B2" transform="translate(145,179)"/>
<path d="M0 0 C-0.33 0.99 -0.66 1.98 -1 3 C-5.29 3 -9.58 3 -14 3 C-14 2.34 -14 1.68 -14 1 C-4.58997722 -0.14806378 -4.58997722 -0.14806378 0 0 Z " fill="#64788C" transform="translate(470,140)"/>
<path d="M0 0 C0 0.66 0 1.32 0 2 C-5.44693314 2.09688221 -10.63904667 2.12862175 -16 1 C-16 0.67 -16 0.34 -16 0 C-10.27304317 -2.71276903 -5.87042768 -1.50821265 0 0 Z " fill="#637991" transform="translate(388,109)"/>
<path d="M0 0 C1.02104551 0.97850195 2.0206121 1.97980427 3 3 C3 3.33 3 3.66 3 4 C-0.63 4 -4.26 4 -8 4 C-7.67 3.01 -7.34 2.02 -7 1 C-5.5459375 1.0309375 -5.5459375 1.0309375 -4.0625 1.0625 C-1.12534105 1.35618499 -1.12534105 1.35618499 0 0 Z " fill="#2E5374" transform="translate(331,313)"/>
<path d="M0 0 C1.98 0 3.96 0 6 0 C6 1.65 6 3.3 6 5 C3.03 4.67 0.06 4.34 -3 4 C-2.01 3.67 -1.02 3.34 0 3 C0 2.01 0 1.02 0 0 Z " fill="#32506E" transform="translate(413,156)"/>
<path d="M0 0 C3.63 0 7.26 0 11 0 C10 2 10 2 9 3 C7.48071962 3.07179964 5.95832518 3.08392007 4.4375 3.0625 C3.61121094 3.05347656 2.78492188 3.04445312 1.93359375 3.03515625 C1.29550781 3.02355469 0.65742188 3.01195312 0 3 C0 2.01 0 1.02 0 0 Z " fill="#45647B" transform="translate(411,131)"/>
<path d="M0 0 C0 0.66 0 1.32 0 2 C5.28 2 10.56 2 16 2 C16 2.33 16 2.66 16 3 C9.07 3 2.14 3 -5 3 C-5 2.34 -5 1.68 -5 1 C-3 0 -3 0 0 0 Z " fill="#43647A" transform="translate(81,307)"/>
<path d="M0 0 C3.625 -0.1875 3.625 -0.1875 7 0 C7.33 0.99 7.66 1.98 8 3 C6.35 3.66 4.7 4.32 3 5 C3 4.34 3 3.68 3 3 C1.35 3 -0.3 3 -2 3 C-1.34 2.01 -0.68 1.02 0 0 Z " fill="#32516C" transform="translate(134,273)"/>
<path d="M0 0 C-0.99 0.66 -1.98 1.32 -3 2 C-3.72382467 4.05925139 -3.72382467 4.05925139 -4 6 C-7.16115776 4.63016497 -7.9927092 4.0109362 -10 1 C-8.71073008 0.63720544 -7.41846728 0.28503302 -6.125 -0.0625 C-5.40570313 -0.25972656 -4.68640625 -0.45695313 -3.9453125 -0.66015625 C-2 -1 -2 -1 0 0 Z " fill="#506A82" transform="translate(424,177)"/>
<path d="M0 0 C3.875 1.75 3.875 1.75 5 4 C7.01669827 5.13350534 7.01669827 5.13350534 9 6 C9 6.66 9 7.32 9 8 C9.66 8.33 10.32 8.66 11 9 C7.60463643 8.39368508 5.69339132 7.10421197 3 5 C1.68163705 4.30419733 0.35208914 3.62775567 -1 3 C-0.67 2.01 -0.34 1.02 0 0 Z " fill="#4F6B83" transform="translate(418,55)"/>
<path d="M0 0 C-0.66 1.65 -1.32 3.3 -2 5 C-4.97 4.505 -4.97 4.505 -8 4 C-8 3.34 -8 2.68 -8 2 C-3.61016949 -1.20338983 -3.61016949 -1.20338983 0 0 Z " fill="#315270" transform="translate(417,180)"/>
<path d="M0 0 C1.08667969 0.01804687 2.17335938 0.03609375 3.29296875 0.0546875 C4.54013672 0.08949219 4.54013672 0.08949219 5.8125 0.125 C5.8125 0.785 5.8125 1.445 5.8125 2.125 C2.38560364 3.26729879 0.20147782 3.03361076 -3.375 2.6875 C-5.00501953 2.53474609 -5.00501953 2.53474609 -6.66796875 2.37890625 C-7.91513672 2.25322266 -7.91513672 2.25322266 -9.1875 2.125 C-5.66070901 -0.22619399 -4.15870515 -0.08943452 0 0 Z " fill="#37526B" transform="translate(382.1875,103.875)"/>
<path d="M0 0 C0.97582031 0.19464844 1.95164063 0.38929687 2.95703125 0.58984375 C4.06111328 0.82380859 4.06111328 0.82380859 5.1875 1.0625 C5.1875 1.7225 5.1875 2.3825 5.1875 3.0625 C6.1775 3.3925 7.1675 3.7225 8.1875 4.0625 C1.83166673 3.19579546 -4.48801301 2.13215872 -10.8125 1.0625 C-10.8125 0.7325 -10.8125 0.4025 -10.8125 0.0625 C-6.8710998 -0.96788433 -3.97634848 -0.81443282 0 0 Z " fill="#788D9C" transform="translate(193.8125,84.9375)"/>
<path d="M0 0 C0 0.99 0 1.98 0 3 C-2.75 3.6875 -2.75 3.6875 -6 4 C-8.375 2.5625 -8.375 2.5625 -10 1 C-6.52674819 -0.1577506 -3.63932552 -0.06866652 0 0 Z " fill="#637B90" transform="translate(390,297)"/>
<path d="M0 0 C5.75 -0.125 5.75 -0.125 8 1 C8 1.66 8 2.32 8 3 C5.39417629 3.93065133 4.35801776 4.14917407 1.75 3.0625 C1.1725 2.711875 0.595 2.36125 0 2 C0 2.66 0 3.32 0 4 C0.99 4.33 1.98 4.66 3 5 C1.68 5 0.36 5 -1 5 C-0.67 3.35 -0.34 1.7 0 0 Z " fill="#7E95A8" transform="translate(173,79)"/>
<path d="M0 0 C2.97 0 5.94 0 9 0 C9.33 0.66 9.66 1.32 10 2 C7.24921116 2.91692961 5.64051087 3.10886083 2.8125 3.0625 C0.9253125 3.0315625 0.9253125 3.0315625 -1 3 C-0.67 2.01 -0.34 1.02 0 0 Z " fill="#31516E" transform="translate(367,257)"/>
<path d="M0 0 C0.33 0 0.66 0 1 0 C1.3125 2.6875 1.3125 2.6875 1 6 C-1.5 8.875 -1.5 8.875 -4 11 C-4.25524262 7.9370886 -4.27835451 6.42358294 -2.5625 3.8125 C-2.046875 3.214375 -1.53125 2.61625 -1 2 C-0.67 1.34 -0.34 0.68 0 0 Z " fill="#657C8F" transform="translate(345,167)"/>
<path d="M0 0 C4.62 0 9.24 0 14 0 C12.68 1.32 11.36 2.64 10 4 C9.01 3.67 8.02 3.34 7 3 C7 2.67 7 2.34 7 2 C4.69 1.67 2.38 1.34 0 1 C0 0.67 0 0.34 0 0 Z " fill="#6D879D" transform="translate(488,120)"/>
<path d="M0 0 C1.9375 0.75 1.9375 0.75 4 2 C4.75 4.125 4.75 4.125 5 6 C2.69 6 0.38 6 -2 6 C-1.34 4.02 -0.68 2.04 0 0 Z " fill="#305270" transform="translate(386,257)"/>
<path d="M0 0 C0.33 0 0.66 0 1 0 C2.43723997 5.64629987 3.76123355 11.30694567 5 17 C2.64046906 14.64046906 2.50858587 13.22104383 2 10 C1.34 10 0.68 10 0 10 C0 6.7 0 3.4 0 0 Z " fill="#7D92A3" transform="translate(313,239)"/>
<path d="M0 0 C1.98 0 3.96 0 6 0 C5.34 0.66 4.68 1.32 4 2 C4.99 3.485 4.99 3.485 6 5 C4.02 5 2.04 5 0 5 C-0.33 4.34 -0.66 3.68 -1 3 C-0.67 2.01 -0.34 1.02 0 0 Z " fill="#8A9AA8" transform="translate(379,205)"/>
<path d="M0 0 C1.65 0 3.3 0 5 0 C1.14376321 4.82029598 1.14376321 4.82029598 -2.11328125 5.33203125 C-4.07856214 5.3145776 -6.04166127 5.16596091 -8 5 C-8 4.67 -8 4.34 -8 4 C-6.02 4 -4.04 4 -2 4 C-1.34 2.68 -0.68 1.36 0 0 Z " fill="#4B6984" transform="translate(135,206)"/>
<path d="M0 0 C1.41623216 -0.05447047 2.83308191 -0.09300508 4.25 -0.125 C5.03890625 -0.14820312 5.8278125 -0.17140625 6.640625 -0.1953125 C9.20731941 0.0171622 10.7916067 0.71345895 13 2 C13 2.66 13 3.32 13 4 C12.01 4.33 11.02 4.66 10 5 C9.01 4.34 8.02 3.68 7 3 C7.33 2.34 7.66 1.68 8 1 C5.36 1 2.72 1 0 1 C0 0.67 0 0.34 0 0 Z " fill="#5C7890" transform="translate(217,120)"/>
<path d="M0 0 C3.3 0.33 6.6 0.66 10 1 C10 1.66 10 2.32 10 3 C6.7 3.33 3.4 3.66 0 4 C0 2.68 0 1.36 0 0 Z " fill="#3E5C78" transform="translate(372,105)"/>
<path d="M0 0 C1.6266848 0.28211877 3.25132896 0.57602375 4.875 0.875 C5.77992188 1.03742188 6.68484375 1.19984375 7.6171875 1.3671875 C10 2 10 2 12 4 C8.37 3.67 4.74 3.34 1 3 C0.67 2.01 0.34 1.02 0 0 Z " fill="#768A9B" transform="translate(263,265)"/>
<path d="M0 0 C0.66 0 1.32 0 2 0 C2.66 3.63 3.32 7.26 4 11 C3.34 11 2.68 11 2 11 C0.80712589 7.12315913 0 4.08378077 0 0 Z " fill="#687A91" transform="translate(304,213)"/>
<path d="M0 0 C1.19882812 0.15275391 1.19882812 0.15275391 2.421875 0.30859375 C3.02515625 0.39238281 3.6284375 0.47617188 4.25 0.5625 C0.53125 2.609375 0.53125 2.609375 -2 2.1875 C-2.5775 1.98125 -3.155 1.775 -3.75 1.5625 C-4.08 2.2225 -4.41 2.8825 -4.75 3.5625 C-6.07 2.5725 -7.39 1.5825 -8.75 0.5625 C-5.62819599 -0.40411363 -3.22916205 -0.42738909 0 0 Z " fill="#697E91" transform="translate(438.75,172.4375)"/>
<path d="M0 0 C0.66 0.33 1.32 0.66 2 1 C0.5 3 0.5 3 -2 5 C-4.75871627 5.35800135 -7.20097524 5.18660165 -10 5 C-6.76527494 2.84351662 -3.62848922 1.38542316 0 0 Z " fill="#778D9F" transform="translate(447,125)"/>
<path d="M0 0 C0.66 0.99 1.32 1.98 2 3 C-1.3 3 -4.6 3 -8 3 C-8 2.34 -8 1.68 -8 1 C-5.01726077 0.00575359 -3.10494126 -0.31845551 0 0 Z " fill="#2D5377" transform="translate(208,54)"/>
<path d="M0 0 C4.62 0 9.24 0 14 0 C14 0.33 14 0.66 14 1 C10.7 1 7.4 1 4 1 C4 1.66 4 2.32 4 3 C2.35 3 0.7 3 -1 3 C-0.67 2.01 -0.34 1.02 0 0 Z " fill="#304E69" transform="translate(338,306)"/>
<path d="M0 0 C0.99 0 1.98 0 3 0 C3 0.66 3 1.32 3 2 C4.65 1.67 6.3 1.34 8 1 C8.33 1.99 8.66 2.98 9 4 C5.72724974 4 3.153368 3.70074844 0 3 C0 2.01 0 1.02 0 0 Z " fill="#32506B" transform="translate(477,194)"/>
<path d="M0 0 C1.32 0.66 2.64 1.32 4 2 C3.01 2.99 2.02 3.98 1 5 C-0.98 4.34 -2.96 3.68 -5 3 C-4.360625 2.690625 -3.72125 2.38125 -3.0625 2.0625 C-1.06389179 1.1654837 -1.06389179 1.1654837 0 0 Z " fill="#4F6A83" transform="translate(260,309)"/>
<path d="M0 0 C-0.66 0 -1.32 0 -2 0 C-2 0.66 -2 1.32 -2 2 C-5.22791555 4.1519437 -6.28400809 4.20086443 -10 4 C-10 3.34 -10 2.68 -10 2 C-3.375 -1.125 -3.375 -1.125 0 0 Z " fill="#6A7D8E" transform="translate(272,300)"/>
<path d="M0 0 C1.32 0 2.64 0 4 0 C4 0.66 4 1.32 4 2 C4.66 2 5.32 2 6 2 C5.67 3.32 5.34 4.64 5 6 C3.02 6 1.04 6 -1 6 C0.32 5.34 1.64 4.68 3 4 C2.01 3.34 1.02 2.68 0 2 C0 1.34 0 0.68 0 0 Z " fill="#5F7E9B" transform="translate(172,290)"/>
<path d="M0 0 C2.31 0 4.62 0 7 0 C7 0.99 7 1.98 7 3 C4.36 3 1.72 3 -1 3 C-0.67 2.01 -0.34 1.02 0 0 Z " fill="#3F5670" transform="translate(390,181)"/>
<path d="M0 0 C2.29633824 3.44450737 2.54016485 5.93812283 3 10 C-0.0916909 7.47043472 -0.90931332 4.77545388 -2 1 C-1.34 0.67 -0.68 0.34 0 0 Z " fill="#6B8296" transform="translate(363,74)"/>
<path d="M0 0 C0 0.66 0 1.32 0 2 C-4.41225737 3.47075246 -7.48281619 4.36884358 -12 3 C-12 2.67 -12 2.34 -12 2 C-10.7625 1.67 -9.525 1.34 -8.25 1 C-7.55390625 0.814375 -6.8578125 0.62875 -6.140625 0.4375 C-4 0 -4 0 0 0 Z " fill="#627588" transform="translate(425,49)"/>
<path d="M0 0 C1.32 0.33 2.64 0.66 4 1 C3.67 1.33 3.34 1.66 3 2 C5.97 2.33 8.94 2.66 12 3 C12 3.33 12 3.66 12 4 C8.04 4 4.08 4 0 4 C0 2.68 0 1.36 0 0 Z " fill="#4E6174" transform="translate(228,306)"/>
<path d="M0 0 C3.625 0.375 3.625 0.375 7 1 C7 1.99 7 2.98 7 4 C2.545 3.01 2.545 3.01 -2 2 C-1.34 1.34 -0.68 0.68 0 0 Z " fill="#586F85" transform="translate(103,309)"/>
<path d="M0 0 C1.32 0.66 2.64 1.32 4 2 C3.34 2.66 2.68 3.32 2 4 C1.29289322 5.64991582 0.62056011 7.31562256 0 9 C-0.66 8.67 -1.32 8.34 -2 8 C-1.33333333 5.33333333 -0.66666667 2.66666667 0 0 Z " fill="#2D4F6B" transform="translate(453,265)"/>
<path d="M0 0 C0 0.66 0 1.32 0 2 C-6.93 1.505 -6.93 1.505 -14 1 C-14 0.67 -14 0.34 -14 0 C-8.97874074 -0.77916092 -5.02296004 -1.13016601 0 0 Z " fill="#8597AC" transform="translate(380,260)"/>
<path d="M0 0 C1.65 0 3.3 0 5 0 C3.515 1.485 3.515 1.485 2 3 C3.32 3.66 4.64 4.32 6 5 C3.69 5 1.38 5 -1 5 C-0.67 3.35 -0.34 1.7 0 0 Z " fill="#9CACBB" transform="translate(120,205)"/>
<path d="M0 0 C0 0.66 0 1.32 0 2 C-3.96 1.67 -7.92 1.34 -12 1 C-12 0.67 -12 0.34 -12 0 C-7.66726186 -0.92844389 -4.33273814 -0.92844389 0 0 Z " fill="#75899B" transform="translate(417,115)"/>
<path d="M0 0 C-0.33 0.99 -0.66 1.98 -1 3 C-4.96 2.67 -8.92 2.34 -13 2 C-13 1.67 -13 1.34 -13 1 C-8.61414671 0.29826347 -4.44209357 -0.10834375 0 0 Z " fill="#4C6479" transform="translate(179,103)"/>
<path d="M0 0 C3.125 -0.1875 3.125 -0.1875 6 0 C5.01 0.33 4.02 0.66 3 1 C2.26676204 3.01508358 2.26676204 3.01508358 2 5 C0.35 5 -1.3 5 -3 5 C-2 3 -2 3 0 0 Z " fill="#334E65" transform="translate(386,79)"/>
<path d="M0 0 C1.9451 2.91765 2.45276317 4.62537285 3 8 C1.0625 7.1875 1.0625 7.1875 -1 6 C-1.33 5.01 -1.66 4.02 -2 3 C-1.34 2.01 -0.68 1.02 0 0 Z " fill="#5C7289" transform="translate(334,310)"/>
<path d="M0 0 C-2.1875 2.0625 -2.1875 2.0625 -5 4 C-7.8125 3.75 -7.8125 3.75 -10 3 C-3.66666667 -1.22222222 -3.66666667 -1.22222222 0 0 Z " fill="#627993" transform="translate(380,300)"/>
<path d="M0 0 C1.98 0.66 3.96 1.32 6 2 C6 2.66 6 3.32 6 4 C3.03 3.67 0.06 3.34 -3 3 C-2.01 2.01 -1.02 1.02 0 0 Z " fill="#49647D" transform="translate(132,235)"/>
<path d="M0 0 C2.12508244 3.18762365 2.5020163 5.26512223 3 9 C2.34 9 1.68 9 1 9 C-0.06775224 7.03533587 -1.06553465 5.03144641 -2 3 C-1 1 -1 1 0 0 Z " fill="#6D809A" transform="translate(310,230)"/>
<path d="M0 0 C1.32 0 2.64 0 4 0 C3.25 5.75 3.25 5.75 1 8 C1 7.34 1 6.68 1 6 C0.34 5.67 -0.32 5.34 -1 5 C-0.34 5 0.32 5 1 5 C0.67 3.35 0.34 1.7 0 0 Z " fill="#59748A" transform="translate(565,105)"/>
<path d="M0 0 C1.63001953 0.15275391 1.63001953 0.15275391 3.29296875 0.30859375 C4.54013672 0.43427734 4.54013672 0.43427734 5.8125 0.5625 C5.8125 0.8925 5.8125 1.2225 5.8125 1.5625 C0.8625 1.8925 -4.0875 2.2225 -9.1875 2.5625 C-9.1875 1.9025 -9.1875 1.2425 -9.1875 0.5625 C-5.76060364 -0.57979879 -3.57647782 -0.34611076 0 0 Z " fill="#3B5067" transform="translate(268.1875,90.4375)"/>
<path d="M0 0 C1.98 0.495 1.98 0.495 4 1 C3.01 1.495 3.01 1.495 2 2 C1.67 2.66 1.34 3.32 1 4 C0.67 4.33 0.34 4.66 0 5 C1.98 5 3.96 5 6 5 C6 5.33 6 5.66 6 6 C3.69 6 1.38 6 -1 6 C-0.67 4.02 -0.34 2.04 0 0 Z " fill="#98ABB8" transform="translate(383,79)"/>
<path d="M0 0 C3.3 0 6.6 0 10 0 C9.34 1.98 8.68 3.96 8 6 C6 3 6 3 6 1 C4.02 1 2.04 1 0 1 C0 0.67 0 0.34 0 0 Z " fill="#647487" transform="translate(584,47)"/>
<path d="M0 0 C0 3.10551666 -0.5393715 4.35261084 -2 7 C-3.5 5.625 -3.5 5.625 -5 4 C-5 3.34 -5 2.68 -5 2 C-3.35 1.34 -1.7 0.68 0 0 Z " fill="#2C4E6B" transform="translate(195,266)"/>
<path d="M0 0 C1.65 0 3.3 0 5 0 C5.33 0.99 5.66 1.98 6 3 C5.34 3 4.68 3 4 3 C4 3.66 4 4.32 4 5 C3.01 5 2.02 5 1 5 C0.67 3.35 0.34 1.7 0 0 Z " fill="#54748D" transform="translate(126,204)"/>
<path d="M0 0 C0.66 0.99 1.32 1.98 2 3 C4.56282742 3.72965366 4.56282742 3.72965366 7 4 C7 4.33 7 4.66 7 5 C3.7 4.67 0.4 4.34 -3 4 C-3 3.01 -3 2.02 -3 1 C-2.01 1.33 -1.02 1.66 0 2 C0 1.34 0 0.68 0 0 Z " fill="#30516E" transform="translate(449,163)"/>
<path d="M0 0 C0.99 0.33 1.98 0.66 3 1 C2.34 1 1.68 1 1 1 C0.67 2.32 0.34 3.64 0 5 C-1.98 4.34 -3.96 3.68 -6 3 C-4 2 -2 1 0 0 Z " fill="#5F748C" transform="translate(414,201)"/>
<path d="M0 0 C3.68754757 0.49831724 5.60490662 1.10067643 8 4 C5.36 3.67 2.72 3.34 0 3 C0 2.01 0 1.02 0 0 Z " fill="#576E86" transform="translate(400,156)"/>
<path d="M0 0 C2.5 0.3125 2.5 0.3125 5 1 C5.33 1.66 5.66 2.32 6 3 C3.69 3.33 1.38 3.66 -1 4 C-1 1 -1 1 0 0 Z " fill="#2C5377" transform="translate(203,123)"/>
<path d="M0 0 C1.65 0.33 3.3 0.66 5 1 C5 2.32 5 3.64 5 5 C2.69 4.34 0.38 3.68 -2 3 C-1.34 2.01 -0.68 1.02 0 0 Z " fill="#657C94" transform="translate(375,284)"/>
<path d="M0 0 C2.31 0.33 4.62 0.66 7 1 C7 1.99 7 2.98 7 4 C4.36 3.34 1.72 2.68 -1 2 C-0.67 1.34 -0.34 0.68 0 0 Z " fill="#5B7284" transform="translate(397,235)"/>
<path d="M0 0 C2.31 0.33 4.62 0.66 7 1 C6.01 1.495 6.01 1.495 5 2 C4.67 2.99 4.34 3.98 4 5 C3.01 4.67 2.02 4.34 1 4 C1.33 3.34 1.66 2.68 2 2 C1.34 1.34 0.68 0.68 0 0 Z " fill="#3D5F79" transform="translate(153,176)"/>
<path d="M0 0 C0.33 0.66 0.66 1.32 1 2 C0.06553465 4.03144641 -0.93224776 6.03533587 -2 8 C-2.33 8 -2.66 8 -3 8 C-3 5.69 -3 3.38 -3 1 C-2.01 0.67 -1.02 0.34 0 0 Z " fill="#7D8FA0" transform="translate(502,159)"/>
<path d="M0 0 C1.485 0.99 1.485 0.99 3 2 C2.25 6.75 2.25 6.75 0 9 C0.33 6.69 0.66 4.38 1 2 C0.34 1.67 -0.32 1.34 -1 1 C-0.67 0.67 -0.34 0.34 0 0 Z " fill="#566D81" transform="translate(256,118)"/>
<path d="M0 0 C0.66 0.33 1.32 0.66 2 1 C1.25 6.75 1.25 6.75 -1 9 C-2.25541557 5.23375329 -1.37061958 3.62811066 0 0 Z " fill="#6B7D93" transform="translate(586,58)"/>
<path d="M0 0 C3.65316671 1.24976756 4.78065836 1.67098753 7 5 C5.35 5 3.7 5 2 5 C1.34 3.35 0.68 1.7 0 0 Z " fill="#667992" transform="translate(345,53)"/>
</svg>
